<?xml version="1.0" encoding="UTF-8"?><svg id="uuid-3e288c3b-4776-43e4-835b-82b7dbf1465b" xmlns="http://www.w3.org/2000/svg" viewBox="0 0 50 50"><defs><style>.uuid-6d6f9342-eb2b-4589-a1cf-ec39cc6227f0{fill:#edab70;stroke:#ff7f00;stroke-miterlimit:10;stroke-width:1.46px;}.uuid-dc46f9af-560e-49dd-800d-c46843de9879{fill-rule:evenodd;}.uuid-dc46f9af-560e-49dd-800d-c46843de9879,.uuid-8a4a5433-78d9-4166-9697-8365a4e5929a{fill:#3a290c;}</style></defs><rect class="uuid-6d6f9342-eb2b-4589-a1cf-ec39cc6227f0" x="1" y="1" width="48" height="48" rx="5.89" ry="5.89"/><g id="uuid-9c568330-8a4f-45f0-af0f-bf00c055ebe6"><path class="uuid-8a4a5433-78d9-4166-9697-8365a4e5929a" d="M8.71,18.18c-.33.23-.41.68-.18,1s.68.41,1,.18l15.47-10.77,15.48,10.65c.33.23.77.14,1-.18s.14-.77-.18-1l-15.84-10.9c-.24-.2-.6-.22-.87-.03h0s-15.88,11.05-15.88,11.05Z"/><path class="uuid-dc46f9af-560e-49dd-800d-c46843de9879" d="M35.42,41.97l4.42.03v-22.44l-14.84-10.21-14.84,10.33v22.32h4.42v-19.8h20.84v19.77h0ZM25,13.87c1.53,0,2.78,1.24,2.78,2.78s-1.24,2.78-2.78,2.78-2.78-1.24-2.78-2.78,1.24-2.78,2.78-2.78h0Z"/><path class="uuid-dc46f9af-560e-49dd-800d-c46843de9879" d="M15.97,35.05h6.95v6.95h-6.95v-6.95Z"/><path class="uuid-dc46f9af-560e-49dd-800d-c46843de9879" d="M24.31,35.05h6.95v6.95h-6.95v-6.95Z"/><path class="uuid-dc46f9af-560e-49dd-800d-c46843de9879" d="M15.97,27.38h6.95v6.95h-6.95v-6.95Z"/></g></svg>