<?xml version="1.0" encoding="UTF-8"?><svg id="uuid-25750393-01ec-43a5-a3a2-eeedc783036d" xmlns="http://www.w3.org/2000/svg" viewBox="0 0 50 50"><defs><style>.uuid-324b2e51-1d86-4ad8-953a-a019bdc2a39e{fill:#3a290c;}.uuid-c21437bc-4363-47de-bc76-f4475da2edb9{fill:#edab70;stroke:#ff7f00;stroke-miterlimit:10;stroke-width:1.46px;}</style></defs><rect class="uuid-c21437bc-4363-47de-bc76-f4475da2edb9" x="1" y="1" width="48" height="48" rx="5.89" ry="5.89"/><path class="uuid-324b2e51-1d86-4ad8-953a-a019bdc2a39e" d="M35.8,7.5c-3.35,0-6.13,2.46-6.62,5.67h13.24c-.49-3.21-3.28-5.67-6.62-5.67Z"/><path class="uuid-324b2e51-1d86-4ad8-953a-a019bdc2a39e" d="M42.5,42.5V15.22h-13.4v8.33h3.28l7.49,8.32v10.63h2.63ZM32.47,17.66h2.05v3.08h-2.05v-3.08ZM37.08,20.74v-3.08h2.05v3.08h-2.05Z"/><path class="uuid-324b2e51-1d86-4ad8-953a-a019bdc2a39e" d="M14.76,15.22l3.74,3.71h8.55v-3.71h-12.29Z"/><path class="uuid-324b2e51-1d86-4ad8-953a-a019bdc2a39e" d="M19.1,20.98h7.95v2.57h-7.95v-2.57Z"/><path class="uuid-324b2e51-1d86-4ad8-953a-a019bdc2a39e" d="M10.13,31.87l6.92-7.69v-3.8l-4.78-4.74-4.78,4.74v22.11h2.63v-10.63ZM11.25,20.35h2.05v3.08h-2.05v-3.08Z"/><path class="uuid-324b2e51-1d86-4ad8-953a-a019bdc2a39e" d="M14.74,34.58h6.67v7.92h2.57v-9.84l-5.9-6.55-5.9,6.55v9.84h2.57v-7.92Z"/><path class="uuid-324b2e51-1d86-4ad8-953a-a019bdc2a39e" d="M36.55,31.24l-5.08-5.64h-11.09l5.08,5.64h11.09Z"/><path class="uuid-324b2e51-1d86-4ad8-953a-a019bdc2a39e" d="M26.03,33.29h11.8v9.21h-11.8v-9.21Z"/><path class="uuid-324b2e51-1d86-4ad8-953a-a019bdc2a39e" d="M16.79,36.63h2.57v5.87h-2.57v-5.87Z"/></svg>