<?xml version="1.0" encoding="UTF-8"?><svg id="uuid-b0148f45-4190-4b18-934b-1fec5194721c" xmlns="http://www.w3.org/2000/svg" viewBox="0 0 50 50"><defs><style>.uuid-f1ecc709-ffff-4ee8-9efc-79209fb25c96{fill:#f2eca5;stroke:#fffa45;stroke-miterlimit:10;stroke-width:1.46px;}.uuid-c8dfa107-74c5-4d36-945e-d2de602184f5{fill:#3a290c;fill-rule:evenodd;}</style></defs><rect class="uuid-f1ecc709-ffff-4ee8-9efc-79209fb25c96" x="1" y="1" width="48" height="48" rx="5.89" ry="5.89"/><path class="uuid-c8dfa107-74c5-4d36-945e-d2de602184f5" d="M21.46,33.62v8.05h3.55s3.22-.02,3.22-.02v-8.03c0-.9-.38-1.72-1-2.31s-1.46-.96-2.39-.96-1.78.37-2.39.96-1,1.41-1,2.31h0ZM20.15,41.66h-9.62l.06-8.29-.14-6.96,7.95-7.08.02-.02,6.6-5.96c4.92,4.44,9.72,8.86,14.57,13.38-.09,4.95-.16,9.9-.22,14.85l-9.81.06v-8.02c0-1.25-.53-2.38-1.38-3.2s-2.03-1.33-3.32-1.33-2.47.51-3.32,1.33c-.85.82-1.38,1.96-1.38,3.2v8.05h0ZM7.16,27.24c.61.05,1.31-.44,2.1-1.48h0s.05-.06.08-.09h0c2.72-2.42,5.42-4.9,8.18-7.28l7.04-6.37c.26-.24.68-.23.93.03h0s7.48,6.75,7.48,6.75l7.72,7.21s.06.06.09.1h0c.68.97,1.32,1.44,1.92,1.4.55-.03,1.15-.46,1.79-1.29l-6.42-6c-.15-.12-.25-.3-.25-.5v-9.69h-5.95v3.03c.03.52.06,1.04.09,1.56-.4-.37-.79-.73-1.19-1.1l-5.76-5.19-8.97,8.11-.02.02-10.53,9.38c.1.23.34.67.84,1.02.31.22.61.33.82.38Z"/></svg>