<svg width="564" height="296" viewBox="0 0 564 296" fill="none" xmlns="http://www.w3.org/2000/svg">
<rect x="0.5" y="0.5" width="563" height="295" stroke="black"/>
<g clip-path="url(#clip0_942_28517)">
<path d="M276.873 294L271.668 293.421L271.09 292.842H264.149L262.414 292.263H256.053L254.318 290.527L254.896 288.212L251.426 287.633L253.161 288.79L253.739 291.685L250.269 293.421H249.112V292.263L241.594 290.527L232.34 289.948L227.135 287.633V286.475H225.978V287.633H222.508L221.352 286.475V281.844H220.195L220.773 285.317L218.46 286.475V285.317H213.255V284.16H209.785L208.049 282.423L204.001 281.844L203.423 280.108H205.736V278.371H204.579L203.423 276.056L201.688 277.792V278.95H202.844V280.687H197.061V279.529H198.796L198.218 275.477L198.796 274.319H197.639L197.061 275.477H195.326L194.747 270.267L193.591 270.846V273.162H191.856L190.699 269.689L188.386 268.531L187.229 269.11L185.494 267.952V266.216L184.337 268.531L182.602 269.11L179.71 268.531L176.819 269.11L175.662 268.531L171.613 269.689L169.3 268.531L169.878 270.267L172.192 271.425L171.613 273.741L173.348 270.846H176.819V273.741L177.975 273.162H182.602V271.425H183.759L184.337 273.741H186.651V277.214H187.807V278.95H188.964L189.542 282.423H182.602L181.445 281.844L182.602 279.529L183.18 278.371L181.445 277.792H179.71L177.975 277.214L177.397 279.529L176.24 278.95V277.214L173.927 277.792L175.662 279.529L173.927 281.844L172.77 281.265L169.3 280.108V281.265L168.143 281.844L167.565 283.581H165.83L165.252 282.423L164.673 284.739L156.576 284.16L155.42 282.423H150.793L150.214 283.581H148.479V281.844H147.323L146.744 280.687L144.431 281.265L141.539 278.95L139.804 279.529L134.021 276.635L134.599 274.898H135.756V273.741H136.912V270.846L135.756 270.267L136.334 272.004L131.129 271.425V269.689L132.864 268.531L131.129 267.373V266.216L136.334 265.058L132.286 263.321V262.164L129.394 263.321H126.502L125.345 261.006L118.405 261.585V260.427L115.513 259.848V258.691L113.2 258.112V256.954L109.73 258.112V256.954H108.573V255.796L103.368 254.06L93.5361 250.587V248.85H92.3794L91.801 246.535L91.2227 248.271H88.3309V247.114H84.8608L81.9691 245.377L82.5474 242.483L79.6557 241.904L76.7639 241.325L76.1856 239.01H75.0289L74.4505 240.168L73.2938 238.431H68.667L66.932 237.852V236.695L64.0402 236.116H61.7268V234.958L55.9433 233.8L51.8949 233.222L52.4732 230.327H55.365L57.6784 231.485L58.8351 232.643L65.1969 233.222V234.379H69.8237L71.5588 234.958V236.116L77.9206 236.695V234.379L80.234 233.8H78.499L77.9206 232.643L76.1856 233.222V231.485L73.2938 232.064L67.5103 230.906L66.932 227.433L70.4021 228.012L73.2938 229.17V230.327L76.7639 229.748L85.4392 231.485L89.4876 232.643L99.8979 234.958V236.116L114.935 237.852V239.01L119.562 239.589H127.659H129.972L135.756 241.325L135.177 239.01L130.551 238.431L129.972 234.379H128.237V237.273L120.719 237.852V239.01H119.562L118.984 237.852L113.2 236.116L104.525 234.379H101.633L101.055 233.8H95.2711L92.9577 232.643V231.485H88.9093L84.8608 230.327L79.6557 228.591L71.5588 226.854L68.667 225.697L65.1969 224.539L64.0402 221.645H61.7268V218.75L55.365 217.593V216.435H59.9918L61.7268 217.014H65.1969L68.667 219.329L69.2454 218.172H70.4021V219.329H73.8722L76.7639 219.908L79.0773 221.066L81.9691 220.487L80.234 219.908L79.6557 217.593L78.499 217.014L77.9206 218.75L76.7639 218.172V217.014H77.9206V215.856H76.1856V217.014L72.7155 217.593V215.856L71.5588 216.435V215.277H69.8237V217.014L67.5103 216.435V215.277L61.7268 214.12V208.331H62.8835V207.174L66.932 206.595L68.0887 207.752L68.667 207.174H73.8722L75.0289 207.752V206.595H76.1856V201.385L72.1371 200.806L71.5588 199.07L69.8237 198.491L75.0289 197.912L77.9206 199.07L81.9691 199.649L83.1258 202.543L84.2825 203.122L84.8608 205.437L86.0175 206.016L86.5959 203.701H88.9093L88.3309 200.228L90.066 199.649V200.806L92.3794 200.228L92.9577 199.07H94.1144L94.6928 200.228H95.8495V199.07L93.5361 197.912L84.8608 197.333L81.9691 196.754V195.597H80.8124V197.333L78.499 196.754L75.6072 196.176L72.1371 196.754V195.597L62.8835 195.018V193.281L64.0402 192.703L62.8835 189.808H65.1969L68.0887 189.23L68.667 190.966L71.5588 191.545L74.4505 190.966L75.6072 191.545V192.703H76.1856L77.9206 190.387V189.23L61.7268 188.651L57.6784 189.23L55.365 188.651V185.756H59.4134L61.7268 186.335H66.3536V185.178L63.4619 185.756V184.599H59.9918V183.441L55.365 184.02L53.6299 183.441V181.705L53.0516 183.441L50.7382 184.02V182.283L48.4248 181.705V182.862L44.3763 181.705L43.7979 182.862L43.2196 181.126L38.0144 180.547L37.4361 182.283L35.701 181.705L34.5443 179.389L31.6526 179.968L29.9175 178.232L31.0742 177.074H34.5443L35.1227 175.916H40.3278L39.7495 177.653H42.0629V175.916H44.9546L43.2196 174.18V170.707H44.9546V171.864L47.8464 170.707L49.5815 171.285V172.443L51.3165 171.285L57.6784 170.707L58.8351 171.285L59.4134 170.128H61.1485L61.7268 167.812L63.4619 167.234L64.0402 166.076H67.5103H68.667L70.4021 164.339L66.3536 163.76V162.603L64.0402 164.339L61.7268 163.76V157.393L66.932 157.972V156.236H61.1485L60.5701 155.078L62.8835 154.499L61.7268 153.92V152.762H64.6186V153.92H69.8237V152.762L68.0887 152.184L65.7753 152.762L66.3536 149.289L62.3052 148.711H60.5701L55.365 148.132L54.7866 146.395L51.8949 147.553V145.816L52.4732 145.238H51.3165V144.08H49.5815V145.238H47.2681V144.08H46.1114L45.533 141.764L46.1114 140.607L51.8949 141.764V143.501L55.9433 142.922H57.1V144.08H59.4134L59.9918 145.816V144.08L61.7268 144.659V145.816L66.3536 146.974L75.0289 147.553L76.7639 149.289L77.9206 148.711L75.6072 147.553V146.395L81.3907 146.974V148.711L82.5474 149.289V150.447L86.0175 149.868L85.4392 148.132L87.7526 147.553L89.4876 151.026L90.6443 152.184H89.4876V153.92L88.9093 154.499H90.6443L91.801 151.605L94.6928 148.711L94.1144 145.816L90.6443 146.395L90.066 147.553L86.5959 146.974V145.816H89.4876L87.7526 142.343L87.1742 140.607L90.6443 139.449L85.4392 137.713L84.8608 135.397L87.1742 134.239L88.3309 133.661V130.188L88.9093 129.03H86.0175L85.4392 127.293H83.1258V129.03H84.8608V130.188H81.9691L81.3907 128.451L80.8124 130.766H79.6557V129.03L77.9206 129.609L77.3423 127.293H79.0773V126.136H73.2938V124.978H70.9804V123.82L67.5103 124.399H65.7753V123.241L67.5103 122.663L68.0887 120.926L66.932 120.347V119.19H63.4619V118.032L61.1485 118.611L57.1 119.19L55.9433 116.874L57.1 116.295L55.365 115.717L54.2083 118.032L53.0516 115.717L44.9546 115.138L42.0629 113.98V112.822L38.5928 112.243V113.98H35.701V109.928H41.4845L52.4732 111.665L53.0516 112.243L53.6299 111.086H54.7866L55.9433 112.243V111.086H58.2567L58.8351 113.401H61.7268L62.8835 112.243V110.507H64.6186V109.349H61.7268V108.192H59.9918V107.034L64.0402 106.455H60.5701V105.297H58.8351V104.14L61.7268 103.561L59.9918 102.982L59.4134 99.509H61.1485L61.7268 101.245V99.509L63.4619 100.088V101.245L65.1969 101.824V99.509L67.5103 100.088V101.245L65.7753 102.982L65.1969 104.719H66.932V102.403L68.0887 101.824H72.1371V99.509L74.4505 100.088H73.2938V101.824L75.6072 100.667L77.3423 98.9301V97.1936L75.6072 98.3513H73.2938V97.1936H71.5588V98.3513L69.8237 97.7724L68.667 96.6147L61.7268 96.0359L61.1485 93.7205V95.4571L58.8351 94.8782L58.2567 95.4571H56.5217L55.9433 92.5628H51.8949L52.4732 90.8263L56.5217 91.4052V90.2475H58.8351L57.6784 89.0898L56.5217 87.9321L55.365 87.3533L54.7866 89.0898H51.8949V86.1956H50.1598V88.5109H48.4248V85.0379L49.0031 83.8802L50.7382 83.3014L50.1598 80.4072H51.8949L54.2083 82.7225V84.4591H55.9433L55.365 81.5648L57.6784 79.8283H60.5701L63.4619 79.2495L62.8835 78.6706L56.5217 79.2495L55.365 78.0918L52.4732 78.6706L50.1598 79.2495L46.1114 78.0918V76.3553L47.8464 75.7764L48.4248 74.6187H49.5815L50.1598 76.3553L52.4732 75.1976H53.6299L55.365 74.6187L54.7866 71.7245L53.6299 71.1457V69.4091H54.7866L54.2083 67.0938L53.0516 68.2515L51.8949 69.4091H49.5815L51.3165 69.988V71.1457H50.1598V72.3034L48.4248 71.7245L46.6897 69.988L43.7979 69.4091V71.7245L42.0629 72.3034V68.2515H43.7979V67.0938L41.4845 67.6726L38.5928 67.0938L39.1711 65.3573H40.3278V63.6207L43.2196 63.0419L43.7979 65.3573H44.9546V67.0938H46.1114L45.533 64.1996H44.3763L43.7979 61.8842L46.1114 62.463L47.2681 63.0419L47.2681 61.8842L50.7382 61.3054L51.8949 61.8842L51.8949 63.6207H53.6299L52.4732 60.7265L56.5217 61.3054L57.1 60.1477L61.7268 59.5688V58.4111H65.7753L69.8237 56.6746L72.7155 56.0958H77.3423V54.3592H79.6557L80.234 56.0958L83.1258 52.6227H80.8124V53.7804L75.0289 54.3592L73.2938 55.5169L60.5701 56.6746L59.9918 57.2535L47.8464 58.4111L45.533 58.99L44.9546 55.5169L46.6897 54.3592L51.8949 53.7804L54.7866 53.2016L55.365 54.3592L58.8351 53.2016L59.4134 52.0439L55.9433 52.6227L55.365 51.465L55.9433 50.3073L58.8351 49.1497L59.9918 49.7285L59.4134 46.2555H60.5701H61.1485L62.3052 45.0978L64.0402 48.5708V47.4131H65.7753V45.6766L63.4619 45.0978V43.9401H62.3052L60.5701 42.2036V44.5189L55.365 45.6766V42.7824H53.0516L51.8949 38.1517L54.2083 36.994L54.7866 39.8882H55.9433V36.4151L56.5217 35.2574L63.4619 34.6786L64.6186 34.0998H72.7155L73.2938 37.5728V39.8882H74.4505L73.8722 33.5209L77.9206 32.3632V35.2574L79.0773 34.6786V32.3632L81.3907 33.5209V30.0479L82.5474 29.469L84.2825 30.0479L85.4392 31.2055L87.1742 29.469H84.8608V28.3113L87.1742 28.8902V27.1537H88.3309V28.8902L88.9093 26.5748H90.6443L91.2227 29.469H92.3794V25.4171L92.9577 24.2594L95.8495 24.8383V23.6806H98.1629V21.3652L103.368 20.7864L103.946 23.1018H105.103V20.7864H106.26V19.6287H108.573V18.471L112.622 16.7345L114.357 17.3133L114.935 16.1556H118.984H120.14V14.4191H121.297L121.875 16.7345L124.189 17.3133V20.2075L123.032 20.7864V23.1018H124.189V25.4171L125.924 25.996L127.08 30.0479L127.659 31.7844L123.61 32.9421L123.032 34.0998L125.345 34.6786L127.08 35.2574V34.0998L129.394 34.6786V32.3632L128.815 30.0479L129.972 28.8902L132.286 28.3113H131.129L127.659 28.8902V25.996L127.08 24.2594H125.345V23.1018L126.502 22.5229L127.08 20.2075L129.394 18.471L129.972 20.7864L130.551 22.5229V20.7864L132.864 20.2075L133.442 22.5229L134.599 20.2075H136.334L138.647 17.8922H140.961V19.6287H139.804V20.7864H137.491V21.9441H136.334L136.912 23.1018L140.961 20.7864V21.9441L144.431 20.7864L145.009 22.5229L143.274 24.2594V27.1537H145.009V28.3113H146.166L146.744 31.2055L147.323 30.6267V26.5748H149.636V25.4171L152.528 25.996L151.371 28.3113L153.106 27.7325V25.4171H154.841V31.2055L155.998 32.3632L158.311 31.2055L158.89 34.0998H160.046V31.7844L162.36 32.3632L161.781 34.6786V35.2574H162.938L162.36 28.8902H160.625L161.203 27.1537L162.938 27.7325V25.4171H164.095L166.408 27.7325L165.83 32.3632H171.035L173.348 33.5209V32.3632L172.77 29.469H173.927L174.505 30.6267L176.819 28.3113H179.71L180.289 26.5748H181.445L182.024 28.3113L184.915 27.7325L186.072 28.8902L186.651 31.2055L187.229 25.4171L185.494 24.2594V23.1018L190.699 24.2594V25.996L189.542 26.5748L190.699 28.8902L192.434 27.1537H206.893L206.314 29.469H207.471V31.7844H209.206L208.628 29.469L209.206 27.7325H210.941L211.52 30.6267V26.5748L213.833 25.996L214.411 28.8902V33.5209L214.99 32.3632H216.146V31.7844H214.99L215.568 28.3113H217.303V29.469H219.038V26.5748L222.508 25.4171L225.978 26.5748L226.557 24.8383L229.448 25.4171L230.027 27.7325L227.713 29.469H231.184L232.34 28.3113V26.5748L237.545 25.996L238.124 24.8383L241.015 24.2594L242.751 23.6806L241.594 27.1537L243.329 28.3113V29.469H244.486L243.329 26.5748V24.8383L246.799 24.2594H256.631V20.2075L258.944 19.6287L260.101 20.2075L260.679 17.3133L261.836 16.1556L264.149 17.3133L263.571 19.0499L260.679 19.6287L260.101 21.3652L258.944 22.5229L258.366 27.7325L260.679 28.3113L261.836 30.6267H262.414V28.3113L265.885 29.469L266.463 25.4171H267.62L268.198 27.1537H269.355V23.6806H271.09L272.246 24.8383L273.403 28.3113V26.5748L278.03 27.7325V26.5748H279.187L278.608 23.1018L279.187 21.9441L283.235 23.1018L284.392 21.9441V24.2594H286.705V25.4171L289.019 24.2594L289.597 22.5229H290.754V25.996H287.862V27.1537L290.754 26.5748L291.332 27.1537H294.802L295.959 29.469L297.694 28.3113L298.272 26.5748L297.115 25.996H298.272V23.6806L296.537 23.1018L297.115 21.3652L295.959 20.7864V14.998L295.38 13.2614L300.007 13.8403L300.586 16.1556V18.471H301.742V16.7345H303.477V17.8922H305.212V19.6287H304.056L304.634 21.3652H305.791V23.6806L304.056 25.4171V30.0479L303.477 31.2055L305.791 30.6267V29.469H307.526L308.104 27.7325L310.418 28.3113L311.574 27.1537L312.731 27.7325V25.996H311.574V24.8383L314.466 25.4171V27.7325H315.623L315.044 23.1018L315.623 21.9441H314.466V23.1018L312.731 22.5229L312.153 19.0499L313.309 16.1556L312.731 15.5768L312.153 17.3133H310.996V16.1556L308.682 14.998L310.418 13.2614L311.574 11.5249L313.309 12.6826V13.8403L316.779 11.5249L317.358 13.2614H318.514L319.093 17.3133L320.249 16.7345L319.671 14.998L321.406 13.2614L323.72 12.6826L324.876 13.2614L325.455 12.1038H326.611V13.2614H330.66H331.816H336.443L338.757 14.4191L339.335 13.2614H340.492L339.913 16.1556L339.335 17.3133H341.07V14.4191H343.383L345.119 15.5768L343.962 18.471H346.854V17.3133H345.697L346.275 14.998L352.059 16.1556L352.637 13.8403H360.156L363.626 14.998L364.204 17.8922L368.253 17.3133V18.471L367.096 19.0499H368.253L368.831 16.1556L368.253 14.4191H371.144L374.036 17.3133L375.771 14.4191L378.085 14.998V13.2614L372.879 10.9461L373.458 8.05185H376.928L377.506 9.20954L380.976 9.78838V13.2614L382.711 13.8403L383.29 15.5768L385.603 16.1556V14.4191L387.916 14.998V12.6826H384.446V10.9461V8.6307H386.181V9.78838L391.387 9.20954L397.748 10.9461H404.11L410.472 12.1038V13.2614H413.364V14.4191L416.256 14.998V16.1556H420.882V17.3133L423.196 17.8922L426.088 16.7345L427.823 16.1556L429.558 16.7345V18.471L434.185 17.8922V16.7345H435.341L435.92 21.3652L433.606 20.7864V21.3652L436.498 21.9441V23.1018H437.655V24.2594L445.752 24.8383L447.487 26.5748V27.7325L452.113 27.1537L457.319 27.7325L458.475 28.3113V30.0479H459.632V31.2055L461.945 30.0479L467.151 30.6267L470.621 31.2055L470.042 35.2574L467.729 35.8363V34.6786L463.68 35.2574V36.994L466.572 37.5728L467.151 39.8882H468.307L470.042 41.6247L471.777 40.467L472.356 38.1517H474.669L474.091 42.7824L475.247 39.8882L476.982 38.1517L474.091 36.994V33.5209V32.3632L474.669 30.0479L479.874 30.6267L481.609 32.9421L481.031 34.0998H482.188V32.9421L483.923 33.5209L484.501 34.6786H488.549L490.863 38.7305L494.911 39.3093L497.225 40.467H498.96V42.7824L500.695 41.0459H501.852V42.7824L508.213 43.3612L512.262 44.5189V46.2555L515.154 47.4131L515.732 49.1497L515.154 49.7285V52.6227L510.527 52.0439L511.105 54.3592H509.948L508.792 50.3073V49.1497H506.478V51.465H505.322V48.5708L504.165 50.8862L501.852 50.3073H500.116L499.538 49.1497H498.381V50.8862L501.273 51.465L502.43 53.7804L501.852 56.0958L500.116 58.99L497.803 59.5688L496.068 60.7265L497.225 63.0419L498.96 62.463L498.381 60.7265L502.43 61.3054L504.165 60.7265V59.5688L502.43 58.99L504.165 57.8323L507.635 58.4111L511.683 60.1477V61.8842H509.37L510.527 63.6207L512.84 63.0419L513.997 65.3573L513.419 65.9361L516.889 66.5149L517.467 64.7784H518.624V59.5688L520.359 58.99L523.829 60.7265L523.251 62.463V69.4091L527.877 70.5668L529.034 75.7764L526.721 74.6187L526.142 72.3034H523.829V73.461H524.986V74.6187H523.829L523.251 77.5129H522.094V78.6706L524.986 79.2495V80.4072H522.672V82.7225H523.829L524.407 80.986L526.721 81.5648L526.142 84.4591L525.564 89.6686L526.721 89.0898H530.191L531.926 90.2475V92.5628L529.612 93.1417L529.034 94.2994L532.504 94.8782L534.239 96.0359H536.553L535.974 97.7724L534.818 98.3513V102.982H535.974V104.14H533.082V106.455L535.396 107.034V108.192L536.553 108.77H535.396V111.086L538.288 111.665L538.866 110.507H541.758H542.914H545.228L544.649 112.243H543.493L542.914 114.559L542.336 116.295H544.071L543.493 118.032L537.709 119.768L538.866 121.505L537.131 122.663V124.399L540.023 123.241L541.179 122.663H544.649L543.493 124.978L541.179 125.557L542.336 128.451L538.866 129.03V130.188L542.336 129.609L541.179 131.924H537.131V130.766H535.974L537.709 134.818H539.444V135.976H540.601L539.444 142.922V145.238H534.818L533.082 144.659H529.612V145.816H533.661V146.974L539.444 146.395V149.289H537.131V150.447L542.336 151.026L542.914 153.341H541.179L542.914 155.657V157.393L544.649 157.972L544.071 159.13H539.444V160.287L543.493 161.445L544.071 168.391L542.914 168.97L543.493 171.285L542.336 175.337V177.653L539.444 177.074V179.389L541.179 179.968L541.758 182.283H540.601L540.023 184.599H535.974V185.756L538.288 186.335V187.493L540.601 188.072L541.758 187.493L542.914 188.072V189.808L545.806 190.387L548.698 192.703V193.86L551.011 194.439L551.59 195.597H550.433V196.754L548.698 197.912L548.12 199.649L544.071 198.491L544.649 199.07L548.698 200.228V203.122L551.59 203.701V206.595H552.746V209.489L553.903 210.647V215.277L552.168 218.172H546.963L542.914 217.593L544.071 219.908L547.541 220.487L548.12 222.802L545.806 223.381V228.012H544.649L544.071 230.327V232.643L543.493 233.8L541.758 233.222L540.601 229.17L538.288 228.012L537.709 225.697H535.974L534.818 229.17H535.974V232.643L534.239 233.8L532.504 233.222L535.396 237.273L538.288 237.852V240.168L535.974 239.589L533.661 239.01V240.168L535.974 240.746L539.444 243.062L542.336 244.22L542.914 246.535L540.023 247.693H534.818L535.396 245.956H537.131L536.553 245.377H533.661L529.034 241.904L527.877 240.168L527.299 237.273L526.721 238.431H524.986V236.695H523.251V235.537L520.359 234.958V233.222L516.31 233.8L516.889 236.116L520.359 236.695L523.251 238.431L523.829 240.746L527.877 241.325L528.456 244.22H529.612L531.347 249.429L533.082 251.166L534.239 255.218L535.974 256.375V258.112L541.179 259.269L544.071 261.006L544.649 259.848H546.385L546.963 262.743L544.649 266.794L536.553 263.321L534.818 261.585L531.926 260.427L529.612 258.112L524.407 254.06V250.587H523.251V252.323H521.515L520.359 251.166L517.467 250.587L515.154 248.85V247.114H508.213L507.057 246.535V247.693L503.008 247.114V245.956L501.273 246.535H500.116H496.646H494.333H490.285V248.271H492.02V249.429L494.333 248.85L496.646 251.166V252.323L498.96 252.902V254.639L494.911 254.06L493.755 253.481V252.323L490.863 251.745L487.971 248.85H486.814L479.874 249.429L480.453 245.377L477.561 244.798L473.512 247.693L468.886 248.271V245.377L472.356 243.062H475.247V241.904H470.621L469.464 242.483L467.729 241.325H468.886L469.464 239.01H467.151L465.415 241.904L462.524 242.483V243.641L458.475 245.377H456.74L456.162 247.114L451.535 248.85L449.222 250.587L445.173 252.323H442.281V254.06L437.655 255.218L436.498 254.639V255.796L432.449 256.954L433.028 254.06L438.811 252.323H440.546V251.166H442.86V250.008L448.065 247.114L453.848 245.956L454.427 244.22H455.583V242.483L457.319 243.062L460.789 240.746L462.524 240.168L461.945 239.01H459.632L459.054 240.168H456.74L456.162 241.904L453.27 242.483L452.692 243.641L449.8 243.062L448.643 242.483V244.22H446.33L446.908 245.377L445.752 247.693H439.968L434.763 248.85H433.606L433.028 245.377L436.498 244.22L437.655 244.798L437.076 243.062H434.185L428.979 245.377H426.666L425.509 247.693H428.979L432.449 246.535L433.028 248.85H430.714L429.558 251.166L425.509 251.745V253.481L419.726 254.06L419.147 250.587L415.677 251.745L416.834 255.218L413.364 254.639V256.954L409.315 258.112V260.427L411.051 259.269H412.786V261.585L407.002 262.164V260.427L404.11 261.006L402.954 264.479L397.748 266.216L394.857 265.637H391.965V266.794L387.338 267.952L383.868 268.531L384.446 269.689L395.435 270.267L396.013 274.898H397.748V273.741H396.592V270.846V269.11V267.373H401.797L403.532 265.637H406.424L407.002 263.9H408.737L409.894 266.216L415.099 265.637H419.726L420.304 266.216V270.267L416.834 273.162L411.051 274.319L407.58 275.477V276.635L397.17 279.529L393.7 280.687L385.025 281.844L380.976 282.423V283.581H378.085V280.108L380.398 277.214L380.976 272.583L386.181 273.162L385.025 272.004H382.711L379.241 273.162L376.928 273.741L377.506 276.056V281.265L375.193 281.844V280.108L372.879 278.95L371.723 276.635L369.988 276.056L372.879 273.162H374.036V271.425L368.831 272.583L367.674 272.004L367.096 274.319H365.361V277.792L365.939 278.371V281.844L364.204 284.16H361.891L361.312 281.265L361.891 278.371L357.842 278.95L355.529 277.792L352.637 278.95H350.902L350.324 281.844L350.902 284.739L349.167 287.054L343.383 288.212L334.13 288.79L331.238 289.948L329.503 288.79V287.633L319.671 288.79V289.948L315.044 291.685L313.888 292.263H304.056L300.007 291.685L291.91 292.842L291.332 293.421L276.873 294ZM341.07 285.896L343.383 283.002V281.844L340.492 282.423L339.913 284.739L341.07 285.896ZM227.713 285.896L228.292 283.581L227.135 283.002V285.896H227.713ZM227.135 283.002V281.844L224.822 282.423L227.135 283.002ZM161.203 281.265L158.311 278.371L155.42 277.792L154.263 278.95L155.42 280.687L158.311 280.108V281.265H161.203ZM212.676 278.95L212.098 277.214H210.941V278.95H212.676ZM169.3 277.792V276.635H164.673L165.252 277.792H169.3ZM232.34 276.635V275.477H231.184V276.635H232.34ZM234.654 274.898L234.075 273.162L231.184 273.741V274.898H234.654ZM201.109 272.004L200.531 270.846L199.953 272.004H201.109ZM197.061 271.425L198.796 270.267H197.639V269.11H195.904L195.326 270.846L197.061 271.425ZM199.953 267.373L200.531 265.637L198.218 266.216L199.953 267.373ZM192.434 266.794L193.591 266.216V265.058H191.277V266.794H192.434ZM375.771 262.164L375.193 260.427L374.614 262.164H375.771ZM390.808 258.112V256.954L389.652 257.533L390.808 258.112ZM387.338 257.533L387.916 255.796H385.603L386.181 257.533H387.338ZM393.7 257.533L398.327 255.796L397.748 252.323H396.592L396.013 254.639L393.7 255.218L392.543 255.796V257.533H393.7ZM401.219 255.796V254.639H400.062V255.796H401.219ZM404.11 254.639L404.689 252.323L402.954 254.639H404.11ZM118.405 254.06L117.827 252.902H116.67V254.06H118.405ZM113.2 252.902L111.465 251.745L107.417 250.587L106.838 252.323L110.887 252.902H113.2ZM100.476 250.008L99.3196 247.693H96.4278L97.0062 249.429L100.476 250.008ZM417.991 248.271L419.147 246.535L415.677 247.114L415.099 248.271H417.991ZM89.4876 246.535L88.9093 244.798H86.5959V245.956L89.4876 246.535ZM444.595 244.798V242.483H443.438L444.016 244.798H444.595ZM118.984 244.798V243.641H116.67V242.483L114.935 243.062H116.092V244.798H118.984ZM84.8608 244.798V243.641L83.1258 244.22L84.8608 244.798ZM489.128 243.641L490.285 241.325L486.814 239.01L484.501 240.168L485.658 242.483L489.128 243.641ZM492.02 243.062L490.863 241.904V243.062H492.02ZM501.273 242.483V241.325H500.116V242.483H501.273ZM442.86 242.483L441.703 240.746V242.483H442.86ZM416.834 243.062L418.569 242.483V239.01H417.412V240.168L416.256 240.746L415.677 242.483L416.834 243.062ZM95.8495 242.483L95.2711 239.589L94.1144 241.904L95.8495 242.483ZM90.066 242.483L91.801 240.746L89.4876 241.325L90.066 242.483ZM404.689 241.325V238.431H404.11V241.325H404.689ZM496.646 239.589L497.225 236.695L496.068 237.273L496.646 239.589ZM83.7041 239.01L81.9691 237.273L79.6557 235.537V237.852H80.8124V239.01H83.7041ZM86.5959 237.273L88.3309 235.537L86.5959 234.958L85.4392 237.273H86.5959ZM526.721 236.695L525.564 235.537V236.695H526.721ZM416.834 236.116L417.412 234.958H415.099V236.116H416.834ZM105.681 233.222V227.433L107.995 229.17L108.573 226.275L110.887 225.118L106.838 225.697V222.802H107.995V221.645L105.103 222.224L104.525 223.96V221.645H103.368V223.381L101.055 223.96L99.3196 224.539V223.381L97.5845 223.96V225.697H98.7412L100.476 229.17L101.633 232.064L104.525 231.485L105.103 233.222H105.681ZM113.778 230.906L114.357 229.748L117.248 229.17V227.433H118.984V225.697L116.67 225.118L116.092 223.381H114.357V222.224L112.043 222.802L113.778 223.381V224.539L111.465 225.118L110.308 226.854V228.591H112.622L110.887 230.327L113.778 230.906ZM128.815 230.327V229.17H127.659V230.327H128.815ZM91.801 230.327V228.591L90.6443 228.012L89.4876 229.17L91.801 230.327ZM125.345 227.433V226.854H121.875V227.433H125.345ZM132.286 226.854L132.864 223.381H131.707L131.129 226.854H132.286ZM84.8608 226.275V224.539L86.5959 223.96L84.8608 223.381L84.2825 225.118H83.1258V226.275H84.8608ZM76.7639 225.697L77.3423 223.381H78.499V222.224L75.0289 221.645L75.6072 223.96L75.0289 225.697H76.7639ZM520.359 225.118L520.937 223.96L519.202 224.539L520.359 225.118ZM90.066 224.539V219.908H91.801L92.3794 218.172H84.8608L85.4392 219.908V218.75L88.3309 219.329V221.066L86.0175 220.487L87.1742 223.96L89.4876 223.381L90.066 224.539ZM118.405 223.96V222.224H116.67V223.381L118.405 223.96ZM73.2938 223.381L72.7155 222.224L72.1371 223.381H73.2938ZM70.9804 223.381L70.4021 220.487H69.8237V223.381H70.9804ZM98.7412 221.066L98.1629 219.329V220.487L96.4278 221.066H98.7412ZM134.021 219.908L135.177 217.593L131.707 217.014L132.864 219.908H134.021ZM120.719 220.487L123.61 219.329V217.593L118.984 218.75L120.14 219.329L120.719 220.487ZM117.827 219.908L118.405 217.593L114.935 217.014V218.172H117.248L117.827 219.908ZM550.433 216.435V214.12L549.276 214.699L550.433 216.435ZM541.758 214.699V213.541L543.493 212.962V212.383H538.288L539.444 213.541H541.179L541.758 214.699ZM85.4392 214.699L86.0175 213.541L84.8608 212.383L84.2825 214.699H85.4392ZM83.7041 214.699V214.12H80.8124L80.234 212.383V213.541H79.0773L78.499 212.383V213.541H76.7639V212.383L72.7155 211.226L71.5588 210.068V211.226L65.1969 210.647V212.962L67.5103 213.541L68.667 212.962L72.7155 214.12L83.7041 214.699ZM123.032 213.541L121.875 212.383L121.297 213.541H123.032ZM82.5474 212.383L81.9691 211.226L80.234 211.804L82.5474 212.383ZM98.7412 210.647L98.1629 208.331L96.4278 208.91L97.5845 210.647H98.7412ZM64.6186 210.647V208.331H63.4619V210.647H64.6186ZM81.3907 207.752L80.8124 206.016L79.6557 206.595L78.499 203.701L76.1856 206.595L77.3423 207.752H81.3907ZM98.7412 206.595V205.437L97.0062 206.016L98.7412 206.595ZM81.3907 204.858L81.9691 204.279V200.806L79.6557 201.385L78.499 202.543L80.8124 203.122L81.3907 204.858ZM544.071 203.701L544.649 200.806L540.023 200.228V201.385L542.336 201.964L544.071 203.701ZM95.8495 203.701L95.2711 201.964L94.6928 203.701H95.8495ZM101.633 203.122L102.211 202.543V199.07H101.055L100.476 202.543L101.633 203.122ZM99.3196 203.122V201.964L98.1629 202.543L99.3196 203.122ZM538.866 200.806V199.07L536.553 198.491V200.806H538.866ZM504.165 199.649L504.743 198.491H503.587L504.165 199.649ZM536.553 197.912L537.709 194.439L538.866 193.86H537.131V192.703L531.347 192.124L530.769 193.86H536.553V195.597L534.818 196.176L536.553 197.912ZM547.541 197.333L546.963 195.597L546.385 197.333H547.541ZM88.9093 196.176L87.7526 193.86H86.5959V196.176H88.9093ZM66.932 193.86L68.0887 192.703L65.1969 192.124L66.3536 192.703L66.932 193.86ZM86.0175 192.703L87.1742 191.545L84.8608 192.124L86.0175 192.703ZM102.79 191.545L101.633 189.23V191.545H102.79ZM81.9691 191.545V190.387L80.234 190.966L81.9691 191.545ZM112.622 188.072V186.914L111.465 187.493L112.622 188.072ZM75.6072 188.072L74.4505 185.756L75.0289 188.072H75.6072ZM72.1371 186.914V185.756H70.9804V186.914H72.1371ZM60.5701 183.441L61.1485 182.283H59.9918L60.5701 183.441ZM531.926 182.862V181.705H530.769V182.862H531.926ZM61.7268 181.705V179.389L59.9918 179.968L60.5701 181.705H61.7268ZM56.5217 180.547V178.81L54.7866 178.232V179.968L56.5217 180.547ZM62.3052 177.653V175.916H64.0402V177.074H65.7753L65.1969 174.758H61.1485V175.916L57.1 175.337H55.365L54.7866 176.495L62.3052 177.653ZM537.709 177.074L538.288 175.916H536.553V177.074H537.709ZM54.7866 175.916L53.6299 174.758H51.8949V175.916H54.7866ZM542.336 168.391L542.914 166.076L540.601 164.918L540.023 165.497L539.444 164.339H536.553L538.866 164.918V167.234L542.336 168.391ZM72.7155 166.076V164.918H70.9804V166.076H72.7155ZM84.8608 163.76L86.0175 163.182L85.4392 159.13L82.5474 160.866L83.1258 163.182L84.8608 163.76ZM538.288 163.182L537.131 162.024V163.182H538.288ZM69.2454 163.182L70.9804 162.024L68.667 161.445L67.5103 159.13L66.3536 158.551V160.287L64.6186 160.866L67.5103 161.445V163.182H69.2454ZM92.9577 162.603L93.5361 160.287H90.066L90.6443 162.603H92.9577ZM76.1856 162.603L76.7639 161.445H75.0289V162.603H76.1856ZM100.476 161.445V160.287H99.3196V161.445H100.476ZM75.6072 159.709L77.3423 154.499L76.7639 153.341L77.9206 152.762H75.0289L75.6072 154.499H73.2938L73.8722 156.236L75.0289 159.709H75.6072ZM84.8608 159.13L84.2825 157.972H83.1258V159.13H84.8608ZM70.9804 157.393L72.1371 156.236V152.762H70.9804L70.4021 155.078H69.2454L69.8237 157.393H70.9804ZM83.1258 155.657L84.8608 155.078L85.4392 152.762L84.2825 152.184L83.1258 152.762V153.92L81.3907 153.341L79.6557 153.92L78.499 152.762V155.078L79.6557 155.657H83.1258ZM101.633 154.499L101.055 150.447L98.7412 151.026L101.055 154.499H101.633ZM126.502 153.92V152.762L125.345 153.341L126.502 153.92ZM121.875 153.92V151.026H120.719V153.92H121.875ZM107.417 153.341L106.26 152.184V153.341H107.417ZM125.345 152.762V150.447H124.189L124.767 152.762H125.345ZM115.513 152.762L114.935 151.026V152.762H115.513ZM111.465 152.184V151.026L107.995 150.447L108.573 152.184H111.465ZM104.525 152.184L105.103 149.868L103.368 151.026V152.184H104.525ZM128.237 151.605L128.815 149.289H127.659L128.237 151.605ZM97.5845 149.868L98.7412 149.289L98.1629 146.974H96.4278V149.868H97.5845ZM72.1371 150.447L73.2938 149.289L70.9804 149.868L72.1371 150.447ZM68.667 149.868V148.711L65.1969 148.132L66.3536 149.289L68.667 149.868ZM521.515 148.132L519.202 146.974L519.78 148.132H521.515ZM105.681 146.974L106.838 145.238L106.26 144.08H105.103V146.974H105.681ZM527.877 144.659L526.142 142.922L525.564 144.659H527.877ZM91.801 144.659V143.501L90.6443 144.08L91.801 144.659ZM530.191 142.922L531.347 141.186L529.034 142.343L530.191 142.922ZM526.721 142.343L527.299 141.186L524.407 140.607L523.829 139.449L522.094 140.028L523.829 140.607V142.343H526.721ZM94.1144 140.607L94.6928 139.449L92.3794 140.028L94.1144 140.607ZM96.4278 136.555L97.0062 135.397L95.2711 135.976L96.4278 136.555ZM90.6443 127.872V126.715H91.801V125.557H90.066L90.6443 127.872ZM95.8495 127.293L97.0062 126.136H94.1144L94.6928 127.293H95.8495ZM536.553 123.241L535.974 122.084L534.818 122.663L536.553 123.241ZM103.368 123.241L102.79 119.19L101.633 118.611V123.241H103.368ZM77.9206 122.663L76.1856 121.505V122.663H77.9206ZM71.5588 122.663L72.7155 121.505L72.1371 119.19V120.347L69.8237 120.926L70.9804 121.505L71.5588 122.663ZM98.7412 119.19L98.1629 118.032L97.5845 119.19H98.7412ZM84.8608 117.453L85.4392 115.138H77.9206L76.7639 115.717V113.98L72.7155 113.401L69.8237 113.98L72.7155 116.874H76.1856L77.9206 117.453H84.8608ZM94.6928 116.874V115.717L92.9577 115.138V116.295L94.6928 116.874ZM65.7753 115.138V113.98H62.3052V115.138H65.7753ZM68.667 113.98L69.2454 112.822H68.0887L68.667 113.98ZM75.6072 112.822L76.1856 110.507H73.8722L75.0289 112.822H75.6072ZM78.499 112.243V110.507L77.3423 111.665L78.499 112.243ZM69.8237 112.243L72.7155 111.086L70.9804 110.507V109.349H65.7753L64.6186 111.086H66.3536H69.2454L69.8237 112.243ZM77.9206 102.403V100.667H76.7639L77.3423 102.403H77.9206ZM81.3907 99.509L80.234 98.3513L79.6557 99.509H81.3907ZM82.5474 98.3513L83.1258 96.0359L81.3907 95.4571L80.234 96.0359V97.1936H81.3907V98.3513H82.5474ZM92.3794 96.6147L91.801 95.4571L91.2227 96.6147H92.3794ZM65.7753 95.4571V94.2994L66.932 93.7205L65.1969 88.5109H64.6186V93.1417L65.7753 95.4571ZM84.8608 92.5628L85.4392 90.8263H84.2825L84.8608 92.5628ZM79.6557 92.5628L80.8124 90.2475L78.499 90.8263L79.0773 92.5628H79.6557ZM70.4021 92.5628V91.4052H73.2938L70.9804 90.8263L70.4021 89.6686L68.0887 90.2475V91.4052H69.2454V92.5628H70.4021ZM61.7268 90.2475L59.9918 87.9321V90.2475H61.7268ZM185.494 89.6686L184.915 87.9321L184.337 89.6686H185.494ZM61.1485 86.1956L62.3052 85.0379H60.5701L61.1485 86.1956ZM53.6299 85.6167L54.2083 84.4591L51.8949 85.0379L53.6299 85.6167ZM84.8608 83.3014L84.2825 81.5648L83.7041 83.3014H84.8608ZM78.499 82.7225V82.1437H75.6072V82.7225H78.499ZM84.8608 80.986L85.4392 78.0918L86.5959 76.9341H85.4392L86.0175 72.3034L85.4392 71.1457L84.2825 71.7245L84.8608 72.8822H83.1258V74.0399L81.9691 74.6187H84.2825L83.7041 79.8283L84.8608 80.986ZM79.6557 80.986L79.0773 79.2495L78.499 80.986H79.6557ZM67.5103 80.4072L68.667 79.2495L72.1371 78.6706L70.4021 77.5129L65.7753 78.0918L66.932 78.6706L67.5103 80.4072ZM79.6557 78.6706L78.499 75.7764L75.6072 77.5129V78.6706H79.6557ZM91.2227 78.0918L90.6443 75.7764H89.4876V77.5129L91.2227 78.0918ZM520.937 77.5129L518.624 75.1976H517.467V74.0399L514.575 72.3034L511.683 71.7245L512.262 73.461L516.31 74.6187V76.9341L520.937 77.5129ZM75.0289 76.9341L76.1856 73.461L75.0289 71.1457H73.8722L74.4505 73.461L73.2938 74.0399H74.4505V76.9341H75.0289ZM58.8351 76.3553V75.1976L61.7268 74.6187V72.8822L65.1969 71.7245L63.4619 71.1457V68.8303L65.7753 67.6726L66.3536 65.9361L65.7753 64.7784L68.667 65.3573L67.5103 65.9361L68.667 68.2515H72.7155L73.2938 69.988V67.6726H77.3423L77.9206 66.5149L75.6072 65.9361V64.1996L81.9691 63.6207L85.4392 62.463L86.0175 60.7265L85.4392 58.99L87.1742 60.1477V61.8842L90.066 61.3054L89.4876 58.4111L87.1742 57.2535L83.1258 58.4111V59.5688H84.2825V60.7265L78.499 61.8842V60.7265H79.6557V58.99H76.1856V61.8842L74.4505 62.463V63.6207H72.1371V62.463L70.4021 61.8842L69.8237 63.6207L65.1969 64.1996L65.7753 60.7265H64.6186L64.6186 64.1996H61.7268L59.9918 65.3573V66.5149H61.7268L61.1485 68.8303H58.8351V67.0938L57.1 66.5149L56.5217 68.8303L55.365 69.988L55.9433 71.7245L57.1 72.8822L57.6784 74.0399L55.9433 74.6187L56.5217 76.3553L58.2567 75.1976L58.8351 76.3553ZM70.9804 75.1976V74.0399H69.8237V75.1976H70.9804ZM64.0402 75.1976L64.6186 74.0399H63.4619L64.0402 75.1976ZM78.499 74.6187L82.5474 72.3034L81.9691 70.5668L78.499 71.1457L77.9206 74.6187H78.499ZM94.1144 74.0399L94.6928 72.3034L91.801 71.7245V73.461L94.1144 74.0399ZM69.8237 74.0399L69.2454 72.3034L68.0887 74.0399H69.8237ZM88.9093 73.461L90.066 71.1457H88.3309L88.9093 73.461ZM66.932 72.8822L65.7753 71.7245V72.8822H66.932ZM102.211 71.7245L102.79 69.4091H101.633L101.055 71.7245H102.211ZM95.8495 71.7245L95.2711 69.4091L94.6928 71.7245H95.8495ZM151.371 68.2515L151.949 65.9361L150.214 65.3573L150.793 68.2515H151.371ZM141.539 68.2515V66.5149H140.382V68.2515H141.539ZM50.7382 68.2515V67.0938H49.5815V68.2515H50.7382ZM136.334 65.9361L136.912 64.7784H135.756L136.334 65.9361ZM198.218 64.7784L199.374 62.463L198.218 60.7265H197.061L195.904 64.1996L198.218 64.7784ZM136.912 63.0419L136.912 61.8842H135.756V59.5688H134.599L135.177 62.463L136.912 63.0419ZM177.975 61.8842V60.7265L176.819 61.3054L177.975 61.8842ZM92.3794 61.3054L93.5361 60.7265V59.5688L91.801 60.1477L92.3794 61.3054ZM96.4278 60.1477V58.99L98.7412 58.4111L97.5845 56.0958V57.8323L95.2711 58.4111V60.1477H96.4278ZM150.793 58.99L151.371 57.8323H150.214L150.793 58.99ZM91.2227 58.99L93.5361 55.5169L90.066 53.7804L89.4876 57.8323H90.6443L91.2227 58.99ZM498.96 56.6746L498.381 54.9381L496.068 54.3592L498.381 56.6746H498.96ZM95.8495 56.6746L97.5845 55.5169L95.8495 54.9381L94.6928 56.6746H95.8495ZM54.2083 56.0958L54.7866 54.9381H53.6299L54.2083 56.0958ZM88.9093 55.5169L88.3309 53.7804L86.5959 54.3592L88.9093 55.5169ZM105.681 54.9381V52.6227H103.368L103.946 54.3592L105.103 53.7804L105.681 54.9381ZM99.3196 54.9381L99.8979 53.7804H98.7412L99.3196 54.9381ZM85.4392 54.9381V53.7804H86.5959V52.6227H84.8608L85.4392 54.9381ZM381.555 54.3592L380.976 52.6227L380.398 54.3592H381.555ZM493.755 53.7804L494.333 52.6227L492.02 52.0439V53.2016L493.755 53.7804ZM62.8835 53.7804L63.4619 51.465L61.7268 52.0439V53.7804H62.8835ZM68.667 53.2016L69.2454 51.465L74.4505 50.8862L75.0289 52.0439L76.1856 50.8862L81.9691 50.3073L83.1258 49.1497L80.234 48.5708V47.4131H83.1258V48.5708H84.2825L84.8608 47.992L87.7526 46.8343L87.1742 45.0978L84.8608 44.5189V45.6766H80.234L80.8124 43.3612L86.5959 42.7824L87.1742 43.9401L88.9093 43.3612L88.3309 41.6247L84.2825 41.0459V42.2036L81.9691 41.6247L81.3907 39.8882V41.6247L77.3423 41.0459V42.7824H76.1856V41.0459H75.0289L74.4505 39.8882L73.8722 41.6247L69.8237 42.2036L70.9804 42.7824L71.5588 44.5189L74.4505 45.0978L75.6072 43.9401L77.9206 43.3612L77.3423 45.0978L77.9206 46.2555H76.7639V47.4131H75.0289V46.2555H72.1371L71.5588 50.8862L65.1969 50.3073L64.0402 49.7285L63.4619 51.465L66.3536 52.0439V53.2016H68.667ZM185.494 52.0439L184.915 49.1497L184.337 51.465L185.494 52.0439ZM145.588 51.465V49.1497L143.853 48.5708V50.3073H145.009L145.588 51.465ZM155.998 50.8862L154.841 49.1497L154.263 50.8862H155.998ZM204.579 50.3073L204.001 49.1497L203.423 50.3073H204.579ZM178.554 50.3073L181.445 47.4131L183.18 46.8343L183.759 47.992L184.915 47.4131L184.337 44.5189L183.18 43.9401V45.0978H182.024L182.602 42.2036H179.132L177.975 42.7824L177.397 50.3073H178.554ZM201.688 49.7285L202.266 48.5708H201.109L201.688 49.7285ZM150.793 49.7285V47.992L149.636 45.6766L147.901 46.2555V49.1497L150.793 49.7285ZM502.43 49.1497V47.992H504.165L503.587 46.2555V47.4131L500.695 46.8343L501.852 49.1497H502.43ZM492.02 49.1497V47.992L489.706 48.5708L492.02 49.1497ZM497.225 48.5708L496.646 46.8343L495.49 47.4131L494.911 46.2555V48.5708H497.225ZM489.128 48.5708L487.971 43.9401L485.079 44.5189L486.814 45.0978V47.992L485.658 48.5708H489.128ZM220.195 48.5708L221.352 47.4131L220.195 45.6766V44.5189H221.352L221.93 43.3612H223.665L224.243 43.9401L225.4 43.3612L224.243 41.6247L221.352 40.467V41.6247H220.195V42.7824H219.038L218.46 46.8343V48.5708H220.195ZM187.807 48.5708L190.121 46.2555V41.6247L188.386 41.0459L187.807 39.3093L186.651 44.5189H189.542L186.651 47.4131V48.5708H187.807ZM158.311 48.5708L157.733 46.2555H156.576L157.155 48.5708H158.311ZM141.539 49.1497V47.4131L145.588 48.5708L143.274 45.0978L140.961 45.6766V49.1497H141.539ZM480.453 47.992V46.2555H478.718L479.296 47.992H480.453ZM395.435 47.992V45.6766H394.278V47.992H395.435ZM173.927 47.4131L173.348 45.6766L171.613 46.2555L173.927 47.4131ZM380.398 46.8343L381.555 45.6766L379.241 45.0978L378.663 46.8343H380.398ZM276.295 46.8343L276.873 45.6766H275.716L276.295 46.8343ZM199.953 46.8343L199.374 45.0978H198.218L198.796 46.8343H199.953ZM92.3794 46.8343L92.9577 45.0978L90.066 46.2555L92.3794 46.8343ZM485.658 46.2555L484.501 45.6766L485.079 42.2036H483.344L482.766 43.3612L480.453 44.5189L483.344 45.0978L483.923 46.2555H485.658ZM464.259 46.2555L462.524 42.7824L461.367 44.5189L461.945 46.2555H464.259ZM205.158 46.2555L206.314 43.9401L205.158 41.6247L205.736 38.1517H203.423L202.844 36.994L199.953 37.5728V41.0459V42.7824V45.0978L201.688 46.2555H205.158ZM197.639 46.2555L197.061 43.9401H193.591L193.012 42.7824L191.277 44.5189L191.856 46.2555L195.326 45.6766L197.639 46.2555ZM69.2454 46.2555L68.667 45.0978L66.932 45.6766L69.2454 46.2555ZM308.682 45.6766L309.261 42.2036H308.104L307.526 41.0459V45.0978L308.682 45.6766ZM151.949 46.2555L153.106 45.6766V42.7824L150.793 43.3612L149.636 45.6766L151.949 46.2555ZM262.993 45.0978V43.3612L265.306 42.7824V41.6247H267.041L267.62 38.7305L265.306 35.8363L262.993 37.5728V38.7305L261.258 39.3093L262.414 39.8882V45.0978H262.993ZM257.788 45.0978L258.944 42.7824L257.788 38.7305H256.053V37.5728L257.788 36.994L257.209 35.2574H253.739L254.318 40.467H255.474L254.896 43.9401L257.788 45.0978ZM242.751 45.0978V41.0459L242.172 42.2036H241.015V45.0978H242.751ZM216.146 45.0978V42.7824H217.303L217.881 44.5189V42.7824H219.038V39.8882H216.725L217.881 40.467V42.2036H215.568L214.99 41.0459L213.255 43.3612H214.411V45.0978H216.146ZM213.833 45.0978L213.255 43.9401H212.098V45.0978H213.833ZM210.363 45.0978L209.785 42.7824L208.049 43.3612H209.206V45.0978H210.363ZM450.957 44.5189L451.535 42.7824H450.378L450.957 44.5189ZM458.475 43.9401L457.897 42.2036L457.319 43.9401H458.475ZM344.54 43.9401V41.6247H343.383L342.805 39.8882L342.227 41.0459L343.962 43.9401H344.54ZM302.899 43.9401L303.477 42.7824L302.321 41.6247L300.586 39.8882L301.742 43.3612L302.899 43.9401ZM284.97 43.9401L284.392 42.2036V43.9401H284.97ZM268.198 43.9401L267.62 42.2036L267.041 43.9401H268.198ZM238.124 43.9401L238.702 42.7824L237.545 41.6247L238.124 43.9401ZM232.919 43.9401L233.497 41.0459L232.919 39.3093L231.762 39.8882L232.34 43.9401H232.919ZM111.465 43.9401V42.7824H109.73V43.9401H111.465ZM103.368 44.5189L105.681 43.9401V42.7824L101.633 41.6247V43.9401L103.368 44.5189ZM369.409 43.3612L369.988 42.2036L368.253 42.7824L369.409 43.3612ZM317.936 43.3612L317.358 39.8882L316.201 39.3093L315.623 41.6247H316.779L317.358 43.3612H317.936ZM275.716 42.7824V41.0459H273.403V42.7824H275.716ZM198.218 42.7824L198.796 40.467H197.639L198.218 42.7824ZM124.767 42.7824V41.6247H123.032V42.7824H124.767ZM109.152 42.7824V41.6247H110.887L110.308 39.3093L107.995 38.7305L108.573 40.467V42.7824H109.152ZM334.13 42.2036L334.708 40.467H333.552L334.13 42.2036ZM284.392 42.2036L284.97 41.6247V38.7305L283.813 41.0459L284.392 42.2036ZM230.605 42.2036L231.184 39.3093L230.027 39.8882L229.448 42.2036H230.605ZM193.591 42.2036V41.0459H192.434V42.2036H193.591ZM120.14 42.2036L123.032 39.8882V38.7305H120.14L119.562 41.0459H118.405V42.2036H120.14ZM484.501 41.6247L485.079 39.3093H481.609L483.923 41.6247H484.501ZM291.91 41.6247L292.489 38.1517L290.754 38.7305V41.6247H291.91ZM171.035 42.2036L172.192 41.6247V40.467L169.3 38.1517L168.722 39.8882H169.878L170.457 42.2036H171.035ZM140.961 41.6247L141.539 39.3093L138.647 38.7305V36.4151H139.804L139.226 33.5209L140.382 34.0998L141.539 36.994H142.118V32.9421H143.274L143.853 34.0998V32.9421L146.744 33.5209L147.323 34.6786V33.5209L148.479 32.9421L145.588 31.7844L143.853 30.0479L143.274 28.3113H142.118L141.539 24.8383H140.382L139.804 23.6806L136.912 25.996L136.334 29.469L137.491 30.0479V38.1517L138.069 41.6247H140.961ZM239.28 41.0459L240.437 39.3093L238.124 39.8882V41.0459H239.28ZM213.833 41.0459L213.255 39.3093V41.0459H213.833ZM112.622 41.0459L112.043 39.8882L111.465 41.0459H112.622ZM105.681 41.0459V38.7305L103.946 39.3093L104.525 41.0459H105.681ZM92.9577 41.0459L92.3794 39.8882H91.2227V41.0459H92.9577ZM62.8835 41.0459L63.4619 36.4151L61.1485 37.5728V39.3093L59.9918 39.8882H61.7268V41.0459H62.8835ZM304.634 40.467L304.056 39.3093L303.477 40.467H304.634ZM244.486 41.0459L245.642 40.467V38.7305H243.907L244.486 41.0459ZM191.856 40.467L191.277 38.1517L190.699 39.3093L191.856 40.467ZM182.602 40.467L181.445 37.5728L182.602 36.994H181.445V34.0998H180.289L179.71 38.7305L182.602 40.467ZM173.927 40.467L174.505 39.3093H172.77V40.467H173.927ZM148.479 41.0459L152.528 40.467V38.7305L153.106 35.8363H151.949L152.528 31.7844L151.371 31.2055H147.901L148.479 32.3632H150.793L150.214 38.7305H147.901L147.323 41.0459H148.479ZM102.211 40.467L102.79 38.7305H101.055L100.476 37.5728L99.8979 39.8882L102.211 40.467ZM480.453 39.8882L479.296 38.7305V39.8882H480.453ZM282.657 39.8882V34.6786H281.5L282.078 32.9421H279.765L280.343 38.7305L282.657 39.8882ZM275.716 39.8882L275.138 37.5728H273.403L273.981 39.8882H275.716ZM271.668 39.8882L270.511 37.5728H269.355V39.8882H271.668ZM154.841 39.8882L154.263 37.5728L153.685 38.7305L154.841 39.8882ZM237.545 39.3093V38.1517H236.389V39.3093H237.545ZM188.964 39.3093V35.8363H187.229L188.386 39.3093H188.964ZM94.6928 39.3093L95.2711 38.1517H93.5361V39.3093H94.6928ZM197.639 38.7305L196.482 37.5728L195.904 38.7305H197.639ZM193.012 38.7305L191.856 37.5728V38.7305H193.012ZM177.397 38.7305V36.994L176.24 37.5728L177.397 38.7305ZM314.466 38.1517L313.888 36.994L313.309 38.1517H314.466ZM242.751 38.1517L242.172 35.8363L241.594 37.5728L242.751 38.1517ZM147.901 38.1517L149.636 35.8363L147.323 34.6786L145.588 35.2574L146.744 37.5728L147.901 38.1517ZM128.815 38.1517L129.394 36.994H128.237L128.815 38.1517ZM68.667 38.1517V36.994L67.5103 37.5728L68.667 38.1517ZM209.785 37.5728L209.206 35.8363V36.994L208.049 37.5728H209.785ZM371.144 36.994L370.566 34.0998L369.988 35.8363L371.144 36.994ZM310.996 37.5728L313.888 36.4151L312.731 35.2574V31.2055L310.996 32.9421L310.418 37.5728H310.996ZM308.104 36.994L309.261 32.9421L306.947 31.7844L306.369 34.0998L307.526 36.994H308.104ZM302.321 36.994L302.899 35.8363L301.164 36.4151L302.321 36.994ZM278.03 36.994V34.6786H276.295L277.452 36.994H278.03ZM191.856 36.994L191.277 35.2574V36.994H191.856ZM199.374 36.4151L199.953 34.6786H198.796L198.218 36.4151H199.374ZM194.169 36.4151L193.012 35.2574V36.4151H194.169ZM135.177 36.4151V35.2574H134.021V32.3632L137.491 31.7844L136.334 30.6267H134.021V31.7844H131.707V34.0998H132.864V36.4151H135.177ZM449.8 35.8363V34.6786H447.487V33.5209L445.752 34.0998L446.33 35.2574L449.8 35.8363ZM350.902 35.2574L350.324 34.0998L349.745 35.2574H350.902ZM272.825 35.2574L273.403 34.0998H272.246L272.825 35.2574ZM202.266 35.2574L202.844 29.469L200.531 28.8902L199.374 29.469L200.531 34.6786L202.266 35.2574ZM120.14 35.2574L121.297 34.0998L119.562 32.9421V34.0998H118.405V35.2574H120.14ZM117.827 35.2574V34.0998H116.67V35.2574H117.827ZM291.91 34.6786L290.754 33.5209V34.6786H291.91ZM437.655 34.0998L438.233 32.3632H437.076L437.655 34.0998ZM265.306 34.0998L265.885 31.7844L262.993 32.3632L263.571 34.0998H265.306ZM101.055 34.0998L102.211 32.9421L99.8979 32.3632L98.7412 29.469H98.1629V33.5209L101.055 34.0998ZM456.162 33.5209L456.74 32.3632H453.848L456.162 33.5209ZM226.557 32.9421V31.7844L225.4 32.3632L226.557 32.9421ZM195.326 32.9421L194.747 30.6267L192.434 31.2055L194.169 32.9421H195.326ZM444.016 31.7844L444.595 31.2055V27.7325L444.016 29.469L441.703 30.0479L442.281 31.7844H444.016ZM269.933 31.7844V30.6267H268.776V31.7844H269.933ZM198.796 31.7844V30.6267L197.639 31.2055L198.796 31.7844ZM181.445 31.7844V30.6267H180.289V31.7844H181.445ZM432.449 31.2055V28.8902L430.136 29.469L431.871 31.2055H432.449ZM321.406 31.2055V29.469H320.249V28.3113L321.985 27.7325L322.563 25.4171H326.033V24.2594H327.19L326.611 22.5229H324.876L325.455 19.6287L320.249 19.6287V21.3652L321.985 21.3652V20.2075H323.72L322.563 23.1018L323.141 23.6806L321.406 24.2594V22.5229H318.514L317.936 19.6287L317.358 17.3133H315.623L315.044 15.5768L314.466 17.8922L315.623 21.9441H316.779L317.358 23.6806L319.671 23.1018L320.249 27.1537L317.936 26.5748L317.358 28.3113L319.671 27.7325V28.8902L318.514 29.469L319.093 30.6267L321.406 31.2055ZM235.232 31.2055L235.81 28.8902L234.654 28.3113V31.2055H235.232ZM197.061 30.6267L197.639 28.8902H196.482L197.061 30.6267ZM341.07 30.0479V27.7325L337.6 27.1537L339.913 30.0479H341.07ZM259.523 30.0479V28.8902H256.631L257.209 30.0479H259.523ZM437.655 29.469L438.233 27.7325L436.498 28.3113L437.655 29.469ZM282.078 29.469L283.813 27.7325L284.392 25.996H282.657V27.1537L279.187 27.7325L281.5 29.469H282.078ZM269.933 29.469L270.511 27.1537L268.776 27.7325V29.469H269.933ZM372.879 28.8902L373.458 27.7325L371.144 28.8902H372.879ZM113.778 28.8902L113.2 27.7325L112.622 28.8902H113.778ZM353.215 28.3113L352.059 27.1537V28.3113H353.215ZM253.739 28.8902L254.896 27.7325L253.161 27.1537L253.739 28.8902ZM224.243 28.3113L223.087 27.1537V28.3113H224.243ZM301.164 27.1537L302.899 23.6806L302.321 21.9441H300.007L299.429 20.7864L298.851 23.6806L300.007 27.1537H301.164ZM109.73 27.1537L110.308 25.996H109.152L109.73 27.1537ZM442.86 26.5748L441.125 25.4171V26.5748H442.86ZM351.48 26.5748L352.059 25.4171L350.902 23.6806V26.5748H351.48ZM318.514 25.996V24.8383L317.358 25.4171L318.514 25.996ZM354.372 25.4171L353.794 23.6806L352.637 24.8383L354.372 25.4171ZM328.925 25.4171V23.6806H327.768V25.4171H328.925ZM116.092 25.4171L116.67 21.9441L114.935 21.3652L113.778 25.4171H116.092ZM347.432 24.8383V23.1018L346.275 22.5229L347.432 24.8383ZM333.552 24.8383V23.6806H335.287V22.5229H332.395V18.471L331.816 17.3133L330.081 17.8922L328.346 19.6287L328.925 23.6806H330.081L331.238 22.5229L332.395 24.8383H333.552ZM339.335 24.2594L339.913 21.9441L338.178 22.5229L339.335 24.2594ZM412.207 23.6806V22.5229L410.472 23.1018L412.207 23.6806ZM338.178 21.9441V20.7864L339.913 20.2075L338.757 19.6287L339.335 17.3133H337.022V16.1556L333.552 15.5768L334.708 16.1556L335.287 17.8922L337.022 19.0499L337.6 21.9441H338.178ZM120.14 21.3652V19.6287H117.827L118.405 21.3652H120.14ZM428.979 20.7864L428.401 19.0499H427.244L426.666 17.3133L426.088 19.6287L427.244 20.7864H428.979ZM360.156 18.471L358.999 17.3133V18.471H360.156ZM361.891 17.8922V15.5768L360.734 16.1556L361.312 17.8922H361.891ZM326.611 18.471L327.768 17.8922L327.19 16.1556L326.033 16.7345L326.611 18.471ZM322.563 17.8922L323.141 16.1556L320.828 17.3133L322.563 17.8922ZM408.737 17.3133V16.1556L407.002 15.5768L405.845 14.4191V16.1556L404.689 16.7345L408.737 17.3133ZM396.013 16.1556L393.7 14.998L393.122 16.1556H396.013Z" fill="black"/>
<path d="M427.244 270.267H420.882L421.461 267.373L423.196 265.637V263.9L434.185 259.848L438.811 259.269L439.39 256.954H441.703V258.112H440.546V259.269H442.281L442.86 256.375H444.016L444.595 254.639H446.908L447.487 257.533L451.535 258.112L452.692 255.796L459.054 252.323H461.367L461.945 251.166L463.102 251.745L463.68 253.481L464.837 254.06V255.796H463.68L462.524 258.112L460.789 258.691L460.21 259.848L450.957 262.743L450.378 262.164L449.8 263.9L442.281 265.058L435.341 266.216L433.028 267.373L428.979 269.11H427.244V270.267ZM450.957 259.848L450.378 258.691L449.8 259.848H450.957Z" fill="black"/>
<path d="M261.258 12.1038H259.523L258.944 10.9461L256.053 10.3672L255.474 6.31534L258.366 5.73649V4.57881L261.258 5.73649L262.993 6.31534V8.05186L265.885 6.89418L266.463 6.31534H271.668V4.57881L274.56 4.57881L275.138 5.15765H278.608L279.187 5.73649L283.235 6.31534L283.813 4.57881L286.127 5.15765V6.31534L289.597 5.15765L291.332 3.99997L295.959 6.31534L301.164 6.31534L304.634 7.47302L304.056 9.78839L303.477 10.3672H298.851V8.05186L297.694 9.20955L297.115 10.3672L294.224 10.3672L293.645 10.9461H289.019V9.20955L287.284 9.78839L286.127 9.20955V11.5249L281.5 11.5249L279.765 10.3672V11.5249H278.03V9.20955H275.717L274.56 10.9461H269.355L265.306 10.3672V9.20955H261.258V12.1038Z" fill="black"/>
<path d="M24.7124 145.816L21.8206 145.238L20.6639 142.922L10.832 141.764L10.2536 140.028L14.3021 139.449H21.8206V137.713L24.7124 138.291L25.2907 139.449L28.1825 138.87L28.7608 140.607L31.0742 139.449L35.1227 138.87V140.028L37.4361 140.607V142.343L29.3392 142.922L28.1825 144.08H24.7124V145.816Z" fill="black"/>
<path d="M50.7381 47.4132H45.533V46.2555H42.0629V40.4671L43.7979 39.8883V38.7306L46.6897 39.3094L47.8464 41.0459H49.0031V39.8883L51.3165 40.4671L51.8948 43.9402H54.2083L53.6299 46.2555H51.3165L50.7381 47.4132ZM45.533 42.2036V41.0459L44.3763 41.6248L45.533 42.2036Z" fill="black"/>
<path d="M65.1969 134.24L62.3051 133.661L61.7268 132.503H59.4134L58.835 131.924L55.9433 132.503L50.1598 130.188V127.872L54.7866 127.293V128.451L58.2567 127.872L62.3051 128.451L64.0402 129.609V131.924H65.1969V134.24Z" fill="black"/>
<path d="M284.97 21.9441L283.813 21.3652V20.2076L280.343 21.9441L278.03 20.7864H276.295L275.717 17.8922L277.452 18.471V17.3134H275.717L275.138 14.998L277.452 14.4191L278.03 13.2615H280.343V18.471H283.235V17.3134L285.548 16.7345L287.862 17.8922L286.705 20.7864H284.97V21.9441Z" fill="black"/>
<path d="M559.687 233.222H557.952V232.064L553.325 231.485L551.59 230.906H549.276L547.541 230.327V227.433H549.276V226.275L555.06 226.854L557.952 229.749L559.687 230.906V233.222Z" fill="black"/>
<path d="M253.161 12.6826L250.847 12.1038L248.534 12.6826L247.377 10.9461H246.221L245.642 7.47304H247.377L248.534 5.15767L252.004 5.73651L253.739 6.31535L254.318 9.20956H253.161V12.6826Z" fill="black"/>
<path d="M43.2196 132.503L38.0144 131.924L37.4361 132.503H31.0742V130.766L33.966 130.188L31.6526 128.451L33.966 127.293V128.451L35.701 127.293H37.4361V128.451L36.2794 129.03L40.3278 129.609L40.9062 130.188H43.7979L43.2196 132.503Z" fill="black"/>
<path d="M249.691 22.5229H242.751L242.172 21.3653L242.751 19.6287L241.015 19.0499V17.3134H243.329V18.4711L246.221 17.3134V19.0499L250.847 20.2076V21.3653H249.691V22.5229Z" fill="black"/>
<path d="M546.963 187.493L544.071 186.914L540.601 185.178V184.02H541.758V182.862L545.228 183.441V182.283L543.493 181.705L544.071 179.968L546.385 181.126L546.963 183.441H545.806L546.963 184.599L548.12 185.178L546.963 187.493Z" fill="black"/>
<path d="M495.49 23.6807H493.176V22.523L488.549 21.9441V19.6288H491.441L493.755 20.2076L496.068 19.6288L498.96 20.7865V21.9441H495.49V23.6807Z" fill="black"/>
<path d="M157.733 28.8902H156.576L157.155 25.4171L156.576 23.1018L158.311 22.5229V19.6287H160.046H161.203L162.938 21.3652V22.5229L160.625 24.8383L158.89 25.4171L159.468 27.1537L157.733 28.8902Z" fill="black"/>
<path d="M48.4248 133.661H45.533L44.9547 132.503H46.6897V131.345H45.533L46.1114 129.609H47.8464V128.451L44.9547 127.293V126.136H49.0031L50.7382 125.557V127.293H49.5815V130.188H48.4248V133.661Z" fill="black"/>
<path d="M45.533 145.816H42.6413V144.659L43.798 144.08L41.4846 143.501H40.3279V142.343L38.0145 141.764L38.5928 140.028H43.2196L44.3763 140.607L46.1114 144.08L45.533 145.816Z" fill="black"/>
<path d="M70.9804 131.345H69.8237V130.188L67.5103 129.609V127.293H68.667V126.136H69.8237V127.293H74.4505V130.188H70.9804V131.345Z" fill="black"/>
<path d="M60.5701 223.381L57.1 222.224V221.066H55.365V219.908H53.6299V218.75L57.1 218.172L59.4134 218.75L61.1485 221.066L60.5701 223.381Z" fill="black"/>
<path d="M51.8948 231.485H49.5814V230.327L43.2196 230.906L42.6412 227.433L44.3763 226.854V228.012L46.1113 227.433L48.4247 228.012V229.17L51.8948 229.749V231.485Z" fill="black"/>
<path d="M40.3278 47.4132H37.4361V46.2555H35.1227L35.701 42.7825L39.7495 43.3613V44.519H40.9062L40.3278 47.4132Z" fill="black"/>
<path d="M486.236 21.9441H483.923L482.188 19.0499L480.453 17.8922V16.7345H483.344L484.501 17.8922H486.814L487.393 21.3652L486.236 21.9441Z" fill="black"/>
<path d="M509.37 24.2595H505.9L504.165 23.6807V20.7865H509.948L510.527 23.1018L509.37 24.2595Z" fill="black"/>
<path d="M40.3279 174.758L32.8093 174.18V173.022L35.1227 171.864V170.707H38.5928L41.4846 173.022V174.18L40.3279 174.758ZM38.5928 173.601L38.0145 171.864L37.4361 173.601H38.5928Z" fill="black"/>
<path d="M208.628 286.475H204.001L201.109 284.16V283.002H204.579L205.158 283.581L209.206 284.16L208.628 286.475Z" fill="black"/>
<path d="M41.4845 59.5688L37.4361 58.99V57.8323H38.5928V56.6746H40.3278L40.9062 56.0958H42.6412L43.2196 54.9381L44.3763 55.517L44.9547 58.4112L41.4845 59.5688Z" fill="black"/>
<path d="M479.874 21.3652H471.777V20.2075L474.091 19.0499L477.561 19.6287V18.471L479.874 19.0499V21.3652Z" fill="black"/>
<path d="M17.7721 48.5708H14.302V47.4131L9.67521 47.992L10.2536 46.2554L18.3505 45.6766L17.7721 48.5708Z" fill="black"/>
<path d="M242.751 12.1038H241.594V10.9461L239.28 11.5249L238.124 10.9461V9.78839H239.28L238.702 6.89418L239.859 6.89418V8.05186H241.015L241.594 6.89418H243.329L242.751 12.1038Z" fill="black"/>
<path d="M237.545 22.5229H234.654V15.5768H236.389V19.6287L238.702 20.2076L237.545 22.5229Z" fill="black"/>
<path d="M369.988 282.423H366.518L367.096 280.108L369.409 278.371L372.301 278.95L371.723 281.265L369.988 282.423Z" fill="black"/>
<path d="M215.568 11.525H213.833V9.20959L217.303 6.89422L219.616 9.78844V10.9461L215.568 11.525Z" fill="black"/>
<path d="M474.091 252.323H472.356L472.934 250.008L475.247 249.429V248.271H477.561V249.429H478.718V250.587L474.091 252.323Z" fill="black"/>
<path d="M562 214.699L557.952 214.12L557.373 212.383H556.216V210.647H559.687V212.383L562 212.962V214.699Z" fill="black"/>
<path d="M191.277 277.214H188.386L187.229 276.056L187.807 273.162H190.699L191.277 277.214Z" fill="black"/>
<path d="M193.591 280.687H191.277L191.856 273.741H193.591L194.169 277.214L193.591 280.687Z" fill="black"/>
<path d="M131.707 18.4711L130.551 16.7345V13.8403H133.442V14.998H134.599V17.3134L131.707 18.4711Z" fill="black"/>
<path d="M329.503 8.63074L326.611 8.05189L324.876 6.89421L326.033 6.89421V5.73653L324.876 5.15768L328.925 4.57884L330.081 8.05189L329.503 8.63074Z" fill="black"/>
<path d="M51.8948 209.489L46.1113 208.331L47.268 204.858H48.4247L49.0031 206.595L53.0515 207.752V208.91L51.8948 209.489Z" fill="black"/>
<path d="M292.489 21.3652H290.175V19.6287H289.019V16.7345L291.332 17.8922L293.645 17.3133L292.489 21.3652Z" fill="black"/>
<path d="M186.651 13.8403H185.494V12.6826L183.759 12.1038L184.915 10.3673L188.964 9.78844L188.386 11.525L190.121 12.6826L186.651 13.8403Z" fill="black"/>
<path d="M223.665 10.3672H222.508V9.20956L220.773 8.63072L221.352 6.89419H225.4L226.557 9.20956L223.665 10.3672Z" fill="black"/>
<path d="M478.718 17.8922H476.982H474.091H472.356H471.199V16.7345L476.982 15.5768L478.718 14.998L479.296 17.3134L478.718 17.8922Z" fill="black"/>
<path d="M83.1258 137.134H80.8124V135.976L77.9206 135.397L77.3423 133.661H81.3907V134.818H82.5474L83.1258 137.134Z" fill="black"/>
<path d="M319.671 8.63074H317.936L317.358 5.73653L317.936 4L320.828 4.57884V6.31537L319.671 8.63074Z" fill="black"/>
<path d="M56.5217 212.383L54.2083 211.804L54.7867 210.068H53.0516V208.91L55.365 207.753H57.6784L57.1001 211.226L56.5217 212.383Z" fill="black"/>
<path d="M364.204 10.9461L360.156 10.3673V8.63074H361.312V7.47305L364.204 8.63074L364.782 9.78842L364.204 10.9461Z" fill="black"/>
<path d="M5.62681 173.022L1.57835 171.864V170.128L5.04846 169.549V170.707H6.78351V172.443L5.62681 173.022Z" fill="black"/>
<path d="M306.369 10.9461H305.212L306.369 6.89421L309.261 7.47305L309.839 9.20958L306.369 10.9461Z" fill="black"/>
<path d="M151.371 24.8383L150.793 22.5229H149.636V19.6287L151.95 19.0499L153.106 19.6287L151.95 23.1018L151.371 24.8383Z" fill="black"/>
<path d="M172.192 32.3633H167.565L168.143 31.2056H169.3V28.8902L171.613 29.4691L172.77 31.7844L172.192 32.3633Z" fill="black"/>
<path d="M55.3649 105.297L54.2082 104.719V103.561H55.3649L54.7866 100.667H57.1L57.6783 102.403L57.1 102.982L58.2567 103.561V104.719L55.3649 105.297Z" fill="black"/>
<path d="M178.554 287.054L175.662 286.475V284.16H179.71V286.475L178.554 287.054Z" fill="black"/>
<path d="M229.448 10.3672L227.135 9.78841V8.05188L231.183 6.89419V9.20956L229.448 10.3672Z" fill="black"/>
<path d="M72.1371 67.0938L69.8237 65.3573V64.1996H75.0289V65.9361L72.1371 67.0938Z" fill="black"/>
<path d="M44.9546 87.9321H42.0629V86.7744H44.3763V85.6168L43.2196 85.0379L47.268 84.4591L47.8464 86.1956L45.533 85.6168L44.9546 87.9321Z" fill="black"/>
<path d="M188.386 21.9441L185.494 20.7864L186.072 17.3134H187.807V19.0499L188.964 20.2076L188.386 21.9441Z" fill="black"/>
<path d="M185.494 286.475L183.759 285.896L184.915 283.002L187.807 283.581V285.317L185.494 286.475Z" fill="black"/>
<path d="M193.012 13.8403L191.277 13.2615V12.1038L190.121 11.525L191.277 9.78844L193.591 10.3673L193.012 13.8403Z" fill="black"/>
<path d="M24.134 48.5708H20.6639V46.8343L22.9773 46.2554V45.0977H24.134L24.7123 46.8343L24.134 48.5708Z" fill="black"/>
<path d="M7.94019 141.186L3.31338 140.607L3.89173 138.291L6.20513 138.87L7.94019 139.449V141.186Z" fill="black"/>
<path d="M132.286 276.056L129.972 275.477L130.551 272.583L133.442 273.741V275.477L132.286 276.056Z" fill="black"/>
<path d="M234.654 12.1038L232.919 11.5249L232.34 8.63071L232.919 7.47302L234.654 8.05186V9.20955L236.389 9.78839L235.232 10.3672L234.654 12.1038Z" fill="black"/>
<path d="M30.4959 47.992L27.6041 47.4132V46.2555H28.7608V43.9401L30.4959 44.519L31.0742 46.2555L30.4959 47.992Z" fill="black"/>
<path d="M59.9917 139.449L54.7866 138.87V137.134L59.9917 137.713V139.449Z" fill="black"/>
<path d="M354.372 282.423L351.48 281.844L352.059 280.108H356.107V281.844L354.372 282.423Z" fill="black"/>
<path d="M369.409 11.525L367.674 10.9461L368.253 8.05191L369.988 7.47307L370.566 10.9461L369.409 11.525Z" fill="black"/>
<path d="M51.3165 92.5629H47.8464L47.268 90.2475L51.3165 90.8263V92.5629Z" fill="black"/>
<path d="M58.2567 212.383H57.1L57.6784 210.068H58.8351V208.91L61.1485 208.331L60.5701 210.647L59.9918 211.804L58.2567 212.383Z" fill="black"/>
<path d="M457.319 251.745H453.848L454.427 249.429L456.162 248.85L457.319 249.429V251.745Z" fill="black"/>
<path d="M527.299 78.0918H523.829L524.407 75.1976L526.721 75.7764V76.9341L527.877 77.513L527.299 78.0918Z" fill="black"/>
<path d="M201.109 286.475H198.218V283.581L201.109 284.16L201.688 285.317L201.109 286.475Z" fill="black"/>
<path d="M150.793 18.4711L149.058 17.3134V13.8403H150.793L151.371 17.3134L150.793 18.4711Z" fill="black"/>
<path d="M209.206 12.6826H206.893L207.471 9.78841L208.628 8.63072L210.363 9.78841V10.9461L208.628 11.5249L209.206 12.6826Z" fill="black"/>
<path d="M256.053 21.9441L252.004 21.3652V20.2076L256.053 19.6287V21.9441Z" fill="black"/>
<path d="M354.372 10.9461L352.059 10.3673V8.05189L355.529 8.63074L354.372 9.20958V10.9461Z" fill="black"/>
<path d="M127.08 19.6288H125.345V16.1557L128.237 14.998L127.08 19.6288Z" fill="black"/>
<path d="M54.2083 52.6227L51.8949 52.0439V49.7285L54.7866 50.3074L54.2083 52.6227Z" fill="black"/>
<path d="M64.6185 68.2515L62.8835 67.6726L62.3051 65.3573L64.6185 64.7784L65.1969 65.9361L64.6185 68.2515Z" fill="black"/>
<path d="M73.8722 135.397L72.7155 134.818L71.5588 131.924H73.2938V133.082H75.0289L73.8722 135.397Z" fill="black"/>
<path d="M27.6041 178.232L24.134 177.653L22.9773 177.074V175.916L27.6041 176.495V178.232Z" fill="black"/>
<path d="M337.022 5.73657L332.973 5.73657V4.00005H336.443L337.022 5.73657Z" fill="black"/>
<path d="M61.1484 74.0399H58.2567V72.8822L61.7268 71.1457H62.8835V72.3034H61.1484V74.0399Z" fill="black"/>
<path d="M80.8124 132.503L75.6073 130.766V129.609L80.8124 131.345V132.503Z" fill="black"/>
<path d="M88.3309 132.503H84.2824L85.4391 130.766L87.7526 130.188L88.3309 132.503Z" fill="black"/>
<path d="M383.868 12.6826L381.555 11.5249L382.133 8.63072H383.29V10.3672L384.446 10.9461L383.868 12.6826Z" fill="black"/>
<path d="M310.417 19.6288L307.526 19.0499L308.104 17.3134H310.996L310.417 19.6288Z" fill="black"/>
<path d="M146.744 23.6807H145.588V20.7865H147.901V22.523H146.744V23.6807Z" fill="black"/>
<path d="M473.512 35.8363H470.621V34.0998L473.512 33.5209V35.8363Z" fill="black"/>
<path d="M10.2537 174.18H7.36191L6.78356 172.443L8.51861 171.864L10.2537 172.443V174.18Z" fill="black"/>
<path d="M351.48 16.1557L348.589 14.998V13.8403L352.059 14.4192L351.48 16.1557Z" fill="black"/>
<path d="M471.199 21.9441H467.729V20.7864L470.042 19.6287L471.199 21.9441Z" fill="black"/>
<path d="M546.385 114.559L544.071 113.98V112.822H545.228V111.665H546.385L546.963 113.98L546.385 114.559Z" fill="black"/>
<path d="M86.0175 145.816L85.4392 144.659L83.1258 144.08V142.922L86.5959 143.501L86.0175 145.816Z" fill="black"/>
<path d="M468.307 254.639L465.415 254.06V252.902H468.886L468.307 254.639Z" fill="black"/>
<path d="M63.4618 124.978H62.8835V122.084L64.6185 121.505L65.1969 123.82H63.4618V124.978Z" fill="black"/>
<path d="M154.263 24.2595H152.528L153.106 21.9442L155.42 23.1018L154.263 24.2595Z" fill="black"/>
<path d="M204.001 42.7824L202.266 42.2036V39.8882H204.001V42.7824Z" fill="black"/>
<path d="M51.8948 53.2016L48.4247 52.6228L49.5814 52.0439V50.8862H51.3165L51.8948 53.2016Z" fill="black"/>
<path d="M43.7979 78.0918H40.9062V76.9341H42.6412V75.7764H43.7979V78.0918Z" fill="black"/>
<path d="M47.2681 84.4591H46.1114V82.7226H47.8464L48.4248 80.9861L49.0031 82.1437L48.4248 83.8803L47.2681 84.4591Z" fill="black"/>
<path d="M21.2423 138.87L18.3506 138.291L18.9289 136.555L21.2423 137.713V138.87Z" fill="black"/>
<path d="M80.8124 145.238L78.499 144.659V143.501L81.3907 142.922L80.8124 145.238Z" fill="black"/>
<path d="M270.511 20.7864H269.355L268.776 17.8922H270.511V20.7864Z" fill="black"/>
<path d="M271.668 21.9441L271.09 19.6287L272.246 19.0499L273.403 19.6287L272.825 21.3652L271.668 21.9441Z" fill="black"/>
<path d="M465.415 244.22H463.68L464.259 242.483H466.572V243.641L465.415 244.22Z" fill="black"/>
<path d="M255.474 12.6826L253.739 12.1038L254.896 10.3672H256.053L255.474 12.6826Z" fill="black"/>
<path d="M287.862 16.1557H285.548V14.4192L287.862 14.998V16.1557Z" fill="black"/>
<path d="M256.053 19.0499H253.739L254.318 17.3134H256.053V19.0499Z" fill="black"/>
<path d="M472.934 32.3633L471.199 31.7844V30.0479L473.512 31.2056L472.934 32.3633Z" fill="black"/>
<path d="M73.2938 50.3074H72.1371L73.2938 47.992H74.4505V49.7285L73.2938 50.3074Z" fill="black"/>
<path d="M528.456 81.5648H527.299V78.6706L529.034 79.8283L528.456 81.5648Z" fill="black"/>
<path d="M195.904 278.371H194.169V277.214H195.326V276.056L197.061 276.635L195.904 278.371Z" fill="black"/>
<path d="M171.035 284.16H168.722L169.3 282.423H171.035V284.16Z" fill="black"/>
<path d="M207.471 9.20959L205.736 8.63075L206.893 6.89423H208.049L207.471 9.20959Z" fill="black"/>
<path d="M432.449 17.8922H430.714L430.136 16.1557L433.028 16.7345L432.449 17.8922Z" fill="black"/>
<path d="M261.258 27.1537H259.523V25.4172L261.258 24.8383V27.1537Z" fill="black"/>
<path d="M264.149 42.7824L262.993 42.2036V41.0459L265.306 39.8882L264.149 42.7824Z" fill="black"/>
<path d="M46.6897 53.7805L44.3763 53.2016L44.9546 52.0439H46.6897V53.7805Z" fill="black"/>
<path d="M91.801 151.026H89.4876V149.868L92.3794 149.289L91.801 151.026Z" fill="black"/>
<path d="M545.806 157.393H544.071V155.078H545.228L545.806 157.393Z" fill="black"/>
<path d="M236.389 25.996L234.654 24.8383V23.6806H236.389V25.996Z" fill="black"/>
<path d="M34.5443 45.0978H32.8093V43.3613H34.5443V45.0978Z" fill="black"/>
<path d="M61.7268 208.331L59.9918 207.752L60.5701 206.016H61.7268V208.331Z" fill="black"/>
<path d="M454.427 254.639L453.848 252.323L455.583 252.902V254.06L454.427 254.639Z" fill="black"/>
<path d="M197.639 12.6826H196.482L197.061 10.3672L198.218 12.1038L197.639 12.6826Z" fill="black"/>
<path d="M346.275 14.998H344.54V13.2615L346.275 13.8403V14.998Z" fill="black"/>
<path d="M282.657 16.1557L280.922 15.5769V14.4192H282.657V16.1557Z" fill="black"/>
<path d="M189.542 43.9401H187.807L188.386 42.2036H189.542V43.9401Z" fill="black"/>
<path d="M53.0516 74.6188H51.8949V73.4611L54.7866 72.8822L53.0516 74.6188Z" fill="black"/>
<path d="M43.2196 86.1956H40.9062L41.4846 84.4591L43.2196 86.1956Z" fill="black"/>
<path d="M54.7866 107.034H52.4732V105.876H54.7866V107.034Z" fill="black"/>
<path d="M34.5443 111.086H33.3876V108.77H34.5443V111.086Z" fill="black"/>
<path d="M64.6186 152.184L62.8835 151.605V150.447H64.6186V152.184Z" fill="black"/>
<path d="M52.4732 186.335L50.7381 185.178L53.0515 184.599L52.4732 186.335Z" fill="black"/>
<path d="M90.6443 199.07H88.3309V197.912H90.6443V199.07Z" fill="black"/>
<path d="M61.1485 213.541H58.8351V212.383H61.1485V213.541Z" fill="black"/>
<path d="M453.27 253.481L452.113 252.902V251.166L453.848 251.744L453.27 253.481Z" fill="black"/>
<path d="M204.001 278.95H202.844V276.635H204.001V278.95Z" fill="black"/>
<path d="M268.198 25.4172L267.041 24.8383V23.6806H268.776L268.198 25.4172Z" fill="black"/>
<path d="M157.155 30.6267H155.42V29.469L157.733 30.0479L157.155 30.6267Z" fill="black"/>
<path d="M502.43 60.7266L500.117 60.1477L502.43 59.5689V60.7266Z" fill="black"/>
<path d="M45.533 79.2495H43.7979L44.9546 76.9341L45.533 79.2495Z" fill="black"/>
<path d="M46.1114 82.7225H44.3763L44.9547 80.986L46.1114 81.5648V82.7225Z" fill="black"/>
<path d="M54.7866 222.224H53.6299V220.487L55.365 221.066L54.7866 222.224Z" fill="black"/>
<path d="M464.259 252.323L463.102 251.745V250.587H464.837L464.259 252.323Z" fill="black"/>
<path d="M262.993 12.1038H261.836V10.3672H262.993V12.1038Z" fill="black"/>
<path d="M250.269 19.0499H247.956V17.8922L250.269 19.0499Z" fill="black"/>
<path d="M277.452 27.1537L275.716 26.5748L277.452 25.4172V27.1537Z" fill="black"/>
<path d="M139.804 32.3633H138.647V30.6268H139.804V32.3633Z" fill="black"/>
<path d="M266.463 39.3094H264.728V38.1517H266.463V39.3094Z" fill="black"/>
<path d="M47.2681 72.3034L45.533 71.7246V70.5669H46.6897L47.2681 72.3034Z" fill="black"/>
<path d="M53.0515 94.8782H51.8948V93.1417H53.0515V94.8782Z" fill="black"/>
<path d="M54.7866 95.4571H53.6299V93.7206H54.7866V95.4571Z" fill="black"/>
<path d="M60.5701 170.128H59.4134V168.391H60.5701V170.128Z" fill="black"/>
<path d="M88.9093 202.543H86.5959V201.385L88.9093 202.543Z" fill="black"/>
<path d="M73.2938 203.701H71.5588V202.543H73.2938V203.701Z" fill="black"/>
<path d="M54.2083 211.804H52.4732V210.647H54.2083V211.804Z" fill="black"/>
<path d="M351.48 9.78845H350.324V8.05193L351.48 8.63077V9.78845Z" fill="black"/>
<path d="M169.878 13.8403H168.722L169.3 12.1038L169.878 13.8403Z" fill="black"/>
<path d="M140.382 16.1557H139.226V14.998L140.961 15.5769L140.382 16.1557Z" fill="black"/>
<path d="M238.124 24.2595H236.967V23.1018L238.702 23.6807L238.124 24.2595Z" fill="black"/>
<path d="M203.423 39.3094H201.688V38.1517L203.423 38.7305V39.3094Z" fill="black"/>
<path d="M139.804 41.0459H138.647V39.8882L140.382 40.4671L139.804 41.0459Z" fill="black"/>
<path d="M46.6897 91.984L44.9546 91.4052L46.6897 90.8263V91.984Z" fill="black"/>
<path d="M538.288 110.507H537.131L537.709 108.77L538.288 110.507Z" fill="black"/>
<path d="M78.499 142.922L77.3423 142.343V141.186H78.499V142.922Z" fill="black"/>
<path d="M45.533 159.709L44.3763 158.551H46.1114L45.533 159.709Z" fill="black"/>
<path d="M62.8835 167.234H61.7268V166.076L63.4619 166.655L62.8835 167.234Z" fill="black"/>
<path d="M42.0628 171.864H40.3278V170.707L42.0628 171.285V171.864Z" fill="black"/>
<path d="M75.0289 205.437H73.2938V204.279L75.0289 204.858V205.437Z" fill="black"/>
<path d="M206.314 10.9461H205.158V9.78842H206.314V10.9461Z" fill="black"/>
<path d="M346.275 10.9461H345.119V9.78842H346.275V10.9461Z" fill="black"/>
<path d="M300.586 12.1038H299.429V10.9461H300.586V12.1038Z" fill="black"/>
<path d="M138.647 14.998L137.491 14.4191L138.069 13.2615L138.647 14.998Z" fill="black"/>
<path d="M320.25 14.4192H319.093V13.2615H320.25V14.4192Z" fill="black"/>
<path d="M273.403 14.998H272.246V13.8403H273.403V14.998Z" fill="black"/>
<path d="M136.334 16.1557H135.177V14.998H136.334V16.1557Z" fill="black"/>
<path d="M295.959 16.1557L294.224 15.5769H295.959V16.1557Z" fill="black"/>
<path d="M130.55 17.8922H129.394V16.7345H130.55V17.8922Z" fill="black"/>
<path d="M126.502 21.9441H125.345V20.7864H126.502V21.9441Z" fill="black"/>
<path d="M312.731 23.6807H311.574V22.523H312.731V23.6807Z" fill="black"/>
<path d="M197.639 24.2595H196.482V23.1018H197.639V24.2595Z" fill="black"/>
<path d="M305.791 25.4172H304.634V24.2595H305.791V25.4172Z" fill="black"/>
<path d="M177.397 27.7325H176.24V26.5749H177.397V27.7325Z" fill="black"/>
<path d="M265.885 27.7325H264.728V26.5749H265.885V27.7325Z" fill="black"/>
<path d="M468.886 39.3094H467.729V38.1517H468.886V39.3094Z" fill="black"/>
<path d="M40.9062 42.7824H39.7495V41.6247H40.9062V42.7824Z" fill="black"/>
<path d="M89.4876 60.7266H88.3309V59.5689H89.4876V60.7266Z" fill="black"/>
<path d="M61.7268 71.1457H60.5701V69.988H61.7268V71.1457Z" fill="black"/>
<path d="M44.3763 91.984H43.2196V90.8263H44.3763V91.984Z" fill="black"/>
<path d="M50.1598 94.8782H49.0031V93.7206H50.1598V94.8782Z" fill="black"/>
<path d="M540.023 105.297H538.866V104.14H540.023V105.297Z" fill="black"/>
<path d="M83.1258 132.503L81.3907 131.924H83.1258V132.503Z" fill="black"/>
<path d="M84.2825 138.291H83.1258V137.134H84.2825V138.291Z" fill="black"/>
<path d="M86.5959 142.343H85.4392V141.186H86.5959V142.343Z" fill="black"/>
<path d="M60.5701 163.76H59.4134V162.603H60.5701V163.76Z" fill="black"/>
<path d="M61.1485 167.812H59.9918V166.655H61.1485V167.812Z" fill="black"/>
<path d="M9.67529 171.864H8.51859V170.707H9.67529V171.864Z" fill="black"/>
<path d="M31.0742 175.916H29.9175V174.758H31.0742V175.916Z" fill="black"/>
<path d="M49.5814 185.178H48.4247V184.02H49.5814V185.178Z" fill="black"/>
<path d="M50.7382 206.595H49.5815V205.437H50.7382V206.595Z" fill="black"/>
<path d="M104.525 230.906H103.368V229.749H104.525V230.906Z" fill="black"/>
<path d="M459.632 251.166H458.475V250.008H459.632V251.166Z" fill="black"/>
<path d="M468.886 251.745H467.729V250.587H468.886V251.745Z" fill="black"/>
<path d="M131.129 265.058H129.972V263.9H131.129V265.058Z" fill="black"/>
<path d="M370.566 274.898H369.409V273.741H370.566V274.898Z" fill="black"/>
<path d="M369.409 276.635H368.253V275.477H369.409V276.635Z" fill="black"/>
<path d="M179.71 280.687H178.554V279.529H179.71V280.687Z" fill="black"/>
<path d="M313.888 6.31537L312.731 5.73653L313.888 5.15768V6.31537Z" fill="black"/>
<path d="M338.757 8.63074L337.6 8.05189L338.757 7.47305V8.63074Z" fill="black"/>
<path d="M231.762 10.9461L231.184 9.78842L232.34 10.3673L231.762 10.9461Z" fill="black"/>
<path d="M254.896 15.5768L253.739 14.998L254.896 14.4192V15.5768Z" fill="black"/>
<path d="M257.788 19.0499L256.631 18.4711L257.788 17.8922V19.0499Z" fill="black"/>
<path d="M167.565 25.4172L166.408 24.8383L167.565 24.2595V25.4172Z" fill="black"/>
<path d="M31.0742 43.9401L29.9175 42.7824H31.0742V43.9401Z" fill="black"/>
<path d="M47.8464 49.1497L46.6897 48.5708L47.8464 47.992V49.1497Z" fill="black"/>
<path d="M41.4846 69.4092L40.3279 68.8303L41.4846 68.2515V69.4092Z" fill="black"/>
<path d="M43.7979 121.505H42.6412L43.2196 120.347L43.7979 121.505Z" fill="black"/>
<path d="M66.932 122.663H65.7753L66.3536 121.505L66.932 122.663Z" fill="black"/>
<path d="M76.1856 128.451H75.0289L75.6072 127.293L76.1856 128.451Z" fill="black"/>
<path d="M25.2906 175.916L24.1339 175.337L25.2906 174.758V175.916Z" fill="black"/>
<path d="M54.7866 185.756L53.6299 185.178L54.7866 184.599V185.756Z" fill="black"/>
<path d="M62.3051 193.86L61.7268 192.703L62.8835 193.281L62.3051 193.86Z" fill="black"/>
<path d="M69.8237 198.491H68.667L69.2454 197.333L69.8237 198.491Z" fill="black"/>
<path d="M35.701 226.854L35.1227 225.697L36.2794 226.275L35.701 226.854Z" fill="black"/>
<path d="M538.866 229.17H537.709L538.288 228.012L538.866 229.17Z" fill="black"/>
<path d="M411.051 265.058L409.894 264.479L411.051 263.9V265.058Z" fill="black"/>
</g>
<path d="M104.293 150.902H109.515L104.293 162.51H135.626L140.848 150.902H146.07L140.848 162.51H172.182L177.404 150.902H182.626L177.404 162.51H195.682L198.293 168.314H174.793L164.348 191.529H182.626L185.237 197.333H161.857L157.323 207.39L152.751 207.561L170 168.314H102L91.5 191.529H123L135.626 162.51H140.848L128 191.529H161L158 197.333H125L112.126 226.353H106.904L120 197.333H88.5L78 220.549H147L153 207H157.5L151.348 220.549H169.848L172.182 226.353H148.848L140.848 243.765H135.626L143.348 226.353H112.126L104.293 243.765H99.0705L106.904 226.353H75.5705L67.7371 243.765H62.5149L70.3482 226.353H59.9038L57.2927 220.549H72.9593L80.7927 203.137L83.4038 197.333H70.3482L67.7371 191.529H86.0149L96.4593 168.314H86.0149L83.4038 162.51H99.0705L104.293 150.902Z" fill="#ADD71E"/>
<path d="M203.667 162.51H214.111L224.556 203.137L240.222 162.51L255.889 168.314L266.333 197.333L276.778 162.51H287.222L276.778 232.157L255.889 237.961L245.444 203.137L235 237.961H214.111L203.667 185.726V162.51Z" fill="#449FC5"/>
<path d="M496.111 156.706H506.556V237.961H459.556L454.333 232.157V197.333L464.778 185.725H476L493.5 197.333L464.778 197.5V226.5H490.889L496 220.5L491 197.5L476 185.725H490.889L496.111 156.706Z" fill="#2690BB"/>
<path d="M308.111 185.725H339.444L355.111 203.137L349.889 232.157L344.667 237.961H308.111L297.667 226.353V213.5L310 212.5L313.5 226.353H339.444V197.333H313.5L308.111 203L310.505 214.5L297.667 213.5V197.333L308.111 185.725Z" fill="#3899C1"/>
<path d="M235 81.2549H271.556L276.778 87.0588V124.784L265 123.5V94.5H239.5V115.5L265 121L276.778 124.784L282 127.686V133.49H276.778H235L229.778 104.471L235 81.2549Z" fill="#1386B5"/>
<path d="M396.222 81H432.778L438 86.8039V124.529L426.222 123.245V94.2451H400.722V115.245L426.222 120.745L438 124.529L443.222 127.431V133.235H438H396.222L391 104.216L396.222 81Z" fill="#1386B5"/>
<path d="M120.111 58.0392H177.556V75.451H156.667V133.49H141V75.451H120.111V58.0392Z" fill="#238FBA"/>
<path d="M454.333 81.2549H501.333L511.778 98.6666V133.49H496.111L490.889 98.6666L475.222 104.471L470 133.49H454.333V81.2549Z" fill="#248FBA"/>
<path d="M292.444 81.2549L308.111 87.0588L318.556 110.274L329 81.2549H344.667L339.444 110.274L323.778 133.49H308.111L302.889 127.686L292.444 104.471V81.2549Z" fill="#1487B5"/>
<path d="M203.667 162.51H214.111L229.778 208.941H235V237.961H214.111L203.667 185.726V162.51Z" fill="#3799C1"/>
<path d="M182.778 81.2549H219.333V92.8627L203.667 98.6666L198.444 133.49H182.778V81.2549Z" fill="#1B8BB8"/>
<path d="M276.778 162.51H287.222L276.778 232.157L255.889 237.961L261.111 220.549L271.556 168.314L276.778 162.51Z" fill="#3799C1"/>
<path d="M396.5 133L391.5 107L399.5 117.5L424.5 123L438 112.5L434 126.5L423 133H396.5Z" fill="#2791BB"/>
<path d="M235 133L230 107L238 117.5L263 123L276.5 112.5L272.5 126.5L261.5 133H235Z" fill="#2791BB"/>
<path d="M360 81H376V133H360V81Z" fill="#1989B7"/>
<path d="M360 58H376V72H360V58Z" fill="#1989B7"/>
<path d="M412.556 162.51H428.222V226.353L449.111 237.961H428.222H412.556V162.51Z" fill="#1989B7"/>
<path d="M454.333 81.2549H470V133.49H454.333V81.2549Z" fill="#2C93BC"/>
<path d="M370.778 185.725H402.111V197.333L386.444 203.137L381.222 237.961H370.778V185.725Z" fill="#2890BC"/>
<path d="M329 81.2549H344.667L339.444 110.274L326.389 127.686L313.333 116.078L329 81.2549Z" fill="#2791BB"/>
<path d="M459.556 208.941L464.778 226.353H490.889L496.111 237.961H459.556L454.333 220.549L459.556 208.941Z" fill="#3E9CC3"/>
<defs>
<clipPath id="clip0_942_28517">
<rect width="561" height="290" fill="white" transform="matrix(-1 0 0 -1 562 294)"/>
</clipPath>
</defs>
</svg>
