<svg width="564" height="296" viewBox="0 0 564 296" fill="none" xmlns="http://www.w3.org/2000/svg">
<rect x="42.5" y="46.5" width="489" height="209" rx="34.5" fill="white" stroke="url(#paint0_radial_942_28517)" stroke-width="11"/>
<path d="M104.293 148.902H102.999L102.469 150.081L97.7772 160.51H83.4038H80.3109L81.5799 163.33L84.191 169.134L84.7216 170.314H86.0149H93.3665L84.7216 189.529H67.7371H64.6443L65.9132 192.35L68.5243 198.154L69.0549 199.333H70.3482H80.3109L78.9688 202.317L71.666 218.549H57.2927H54.1998L55.4688 221.37L58.0799 227.174L58.6105 228.353H59.9038H67.2554L60.691 242.944L59.422 245.765H62.5149H67.7371H69.0304L69.561 244.585L76.8638 228.353H103.811L97.2465 242.944L95.9776 245.765H99.0705H104.293H105.586L106.117 244.585L113.419 228.353H140.273L133.798 242.954L132.551 245.765H135.626H140.848H142.13L142.666 244.6L150.13 228.353H172.182H175.141L174.037 225.607L171.704 219.803L171.2 218.549H169.848H154.453L158.633 209.342L158.637 209.342L159.146 208.213L159.146 208.212L159.321 207.827L160.605 205H160.594L163.149 199.333H185.237H188.33L187.061 196.513L184.45 190.709L183.919 189.529H182.626H167.441L176.086 170.314H198.293H201.386L200.117 167.493L197.505 161.689L196.975 160.51H195.682H180.497L184.45 151.723L185.719 148.902H182.626H177.404H176.11L175.58 150.081L170.888 160.51H143.941L147.894 151.723L149.163 148.902H146.07H140.848H139.555L139.024 150.081L134.333 160.51H107.386L111.339 151.723L112.608 148.902H109.515H104.293ZM116.903 199.333L108.231 218.549H81.0996L89.7905 199.333H116.903ZM126.301 199.333H154.183L150.922 206.754L150.92 206.757L145.698 218.549H117.776L126.301 199.333ZM103.29 170.314H130.05L121.689 189.529H94.5996L103.29 170.314ZM131.073 189.529L139.58 170.314H166.936L158.491 189.529H131.073Z" fill="#ADD71E" stroke="#637E06" stroke-width="4"/>
<path d="M276.778 162.51H287.222L276.778 232.157L255.889 237.961L261.111 220.549L271.556 168.314L276.778 162.51Z" fill="#3799C1" stroke="#2664B5" stroke-width="4"/>
<path d="M203.667 162.51H214.111L224.556 203.137L240.222 162.51L255.889 168.314L266.333 197.333L276.778 162.51H287.222L276.778 232.157L255.889 237.961L245.444 203.137L235 237.961H214.111L203.667 185.726V162.51Z" fill="#449FC5" stroke="#2664B5" stroke-width="4"/>
<path d="M496.111 156.706H506.556V237.961H459.556L454.333 232.157V197.333L464.778 185.725H476L493.5 197.333L464.778 197.5V226.5H490.889L496 220.5L491 197.5L476 185.725H490.889L496.111 156.706Z" fill="#2690BB"/>
<path d="M476 185.725H464.778L454.333 197.333V232.157L459.556 237.961H506.556V156.706H496.111L490.889 185.725H476ZM476 185.725L491 197.5L496 220.5L490.889 226.5H464.778V197.5L493.5 197.333L476 185.725Z" stroke="#2664B5" stroke-width="4"/>
<path d="M308.111 185.725H339.444L355.111 203.137L349.889 232.157L344.667 237.961H308.111L297.667 226.353V213.5L310 212.5L313.5 226.353H339.444V197.333H313.5L308.111 203L310.505 214.5L297.667 213.5V197.333L308.111 185.725Z" fill="#3899C1"/>
<path d="M297.667 213.5V197.333L308.111 185.725H339.444L355.111 203.137L349.889 232.157L344.667 237.961H308.111L297.667 226.353V213.5ZM297.667 213.5L310 212.5L313.5 226.353H339.444V197.333H313.5L308.111 203L310.505 214.5L297.667 213.5Z" stroke="#2664B5" stroke-width="4"/>
<path d="M235 81.2549H271.556L276.778 87.0588V124.784L265 123.5V94.5H239.5V115.5L265 121L276.778 124.784L282 127.686V133.49H276.778H235L229.778 104.471L235 81.2549Z" fill="#1386B5"/>
<path d="M276.778 124.784L282 127.686V133.49H276.778H235L229.778 104.471L235 81.2549H271.556L276.778 87.0588V124.784ZM276.778 124.784L265 121L239.5 115.5V94.5H265V123.5L276.778 124.784Z" stroke="#2664B5" stroke-width="4"/>
<path d="M396.222 81H432.778L438 86.8039V124.529L426.222 123.245V94.2451H400.722V115.245L426.222 120.745L438 124.529L443.222 127.431V133.235H438H396.222L391 104.216L396.222 81Z" fill="#1386B5"/>
<path d="M438 124.529L443.222 127.431V133.235H438H396.222L391 104.216L396.222 81H432.778L438 86.8039V124.529ZM438 124.529L426.222 120.745L400.722 115.245V94.2451H426.222V123.245L438 124.529Z" stroke="#2664B5" stroke-width="4"/>
<path d="M120.111 58.0392H177.556V75.451H156.667V133.49H141V75.451H120.111V58.0392Z" fill="#238FBA" stroke="#2664B5" stroke-width="4"/>
<path d="M454.333 81.2549H501.333L511.778 98.6666V133.49H496.111L490.889 98.6666L475.222 104.471L470 133.49H454.333V81.2549Z" fill="#248FBA" stroke="#2664B5" stroke-width="4"/>
<path d="M292.444 81.2549L308.111 87.0588L318.556 110.274L329 81.2549H344.667L339.444 110.274L323.778 133.49H308.111L302.889 127.686L292.444 104.471V81.2549Z" fill="#1487B5" stroke="#2664B5" stroke-width="4"/>
<path d="M203.667 162.51H214.111L229.778 208.941H235V237.961H214.111L203.667 185.726V162.51Z" fill="#3799C1" stroke="#2664B5" stroke-width="4"/>
<path d="M182.778 81.2549H219.333V92.8627L203.667 98.6666L198.444 133.49H182.778V81.2549Z" fill="#1B8BB8" stroke="#2664B5" stroke-width="4"/>
<path d="M490.889 197.333H464.778V226.353H490.889L496.111 220.549L490.889 197.333Z" stroke="#2664B5" stroke-width="4"/>
<path d="M396.5 133L391.5 107L399.5 117.5L424.5 123L438 112.5L434 126.5L423 133H396.5Z" fill="#2791BB" stroke="#2664B5" stroke-width="4"/>
<path d="M235 133L230 107L238 117.5L263 123L276.5 112.5L272.5 126.5L261.5 133H235Z" fill="#2791BB" stroke="#2664B5" stroke-width="4"/>
<path d="M360 81H376V133H360V81Z" fill="#1989B7" stroke="#2664B5" stroke-width="4"/>
<path d="M360 58H376V72H360V58Z" fill="#1989B7" stroke="#2664B5" stroke-width="4"/>
<path d="M412.556 162.51H428.222V226.353L449.111 237.961H428.222H412.556V162.51Z" fill="#1989B7" stroke="#2664B5" stroke-width="4"/>
<path d="M454.333 81.2549H470V133.49H454.333V81.2549Z" fill="#2C93BC" stroke="#2664B5" stroke-width="4"/>
<path d="M370.778 185.725H402.111V197.333L386.444 203.137L381.222 237.961H370.778V185.725Z" fill="#2890BC" stroke="#2664B5" stroke-width="4"/>
<path d="M329 81.2549H344.667L339.444 110.274L326.389 127.686L313.333 116.078L329 81.2549Z" fill="#2791BB" stroke="#2664B5" stroke-width="4"/>
<path d="M459.556 208.941L464.778 226.353H490.889L496.111 237.961H459.556L454.333 220.549L459.556 208.941Z" fill="#3E9CC3" stroke="#2664B5" stroke-width="4"/>
<defs>
<radialGradient id="paint0_radial_942_28517" cx="0" cy="0" r="1" gradientUnits="userSpaceOnUse" gradientTransform="translate(287 151) rotate(87.8631) scale(134.093 304.757)">
<stop offset="0.74" stop-color="#449FC5"/>
<stop offset="1" stop-color="#2664B5"/>
</radialGradient>
</defs>
</svg>
